<svg width="128" height="152" viewBox="0 0 128 152" fill="none" xmlns="http://www.w3.org/2000/svg">
<path d="M64 124C97.1371 124 124 97.1371 124 64C124 30.8629 97.1371 4 64 4C30.8629 4 4 30.8629 4 64C4 97.1371 30.8629 124 64 124Z" fill="#1D1433"/>
<path d="M100 128H28V112C28 94.3 42.3 80 60 80H68C85.7 80 100 94.3 100 112V128Z" fill="#F0EBFF"/>
<path d="M82 152H34V128C34 114.7 44.7 104 58 104C71.3 104 82 114.7 82 128V152Z" fill="#DED4FF"/>
<path d="M100 92H28V56C28 36.2 44.2 20 64 20C83.8 20 100 36.2 100 56V92Z" fill="#F0EBFF"/>
<path d="M64 76H44C33 76 24 67 24 56C24 45 33 36 44 36H64C75 36 84 45 84 56C84 67 75 76 64 76Z" fill="#3E257A"/>
<path d="M32 56C32 45 41 36 52 36H44C33 36 24 45 24 56C24 67 33 76 44 76H52C41 76 32 67 32 56Z" fill="#50338F"/>
<path d="M60 84H58V80H60C61.1 80 62 80.9 62 82C62 83.1 61.1 84 60 84Z" fill="#1D1433"/>
<path d="M100 100H28C25.8 100 24 98.2 24 96C24 93.8 25.8 92 28 92H100C102.2 92 104 93.8 104 96C104 98.2 102.2 100 100 100Z" fill="#A385FF"/>
<path d="M68 60C70.2091 60 72 58.2091 72 56C72 53.7909 70.2091 52 68 52C65.7909 52 64 53.7909 64 56C64 58.2091 65.7909 60 68 60Z" fill="#1D1433"/>
<path d="M88 110C89.1046 110 90 109.105 90 108C90 106.895 89.1046 106 88 106C86.8954 106 86 106.895 86 108C86 109.105 86.8954 110 88 110Z" fill="#F5463A"/>
<path d="M80 110C81.1046 110 82 109.105 82 108C82 106.895 81.1046 106 80 106C78.8954 106 78 106.895 78 108C78 109.105 78.8954 110 80 110Z" fill="#FFC036"/>
<path d="M52 60C54.2091 60 56 58.2091 56 56C56 53.7909 54.2091 52 52 52C49.7909 52 48 53.7909 48 56C48 58.2091 49.7909 60 52 60Z" fill="#1D1433"/>
<path d="M100 72H96C91.6 72 88 68.4 88 64V56C88 51.6 91.6 48 96 48H100C104.4 48 108 51.6 108 56V64C108 68.4 104.4 72 100 72Z" fill="#A385FF"/>
<path d="M100 72C95.6 72 92 68.4 92 64V56C92 51.6 95.6 48 100 48C104.4 48 108 51.6 108 56V64C108 68.4 104.4 72 100 72Z" fill="#F0EBFF"/>
<path d="M100 62C98.9 62 98 61.1 98 60V32C98 30.9 98.9 30 100 30C101.1 30 102 30.9 102 32V60C102 61.1 101.1 62 100 62Z" fill="#A385FF"/>
<path d="M100 36C97.8 36 96 34.2 96 32C96 29.8 97.8 28 100 28C102.2 28 104 29.8 104 32C104 34.2 102.2 36 100 36Z" fill="#DED4FF"/>
<path d="M54 80H50V84H54V80Z" fill="#1D1433"/>
<path d="M50 84H48C46.9 84 46 83.1 46 82C46 80.9 46.9 80 48 80H50V84Z" fill="#1D1433"/>
<path d="M58 80H54V84H58V80Z" fill="#1D1433"/>
</svg>
