<svg width="128" height="128" viewBox="0 0 128 128" fill="none" xmlns="http://www.w3.org/2000/svg">
<path d="M64 124C97.1371 124 124 97.1371 124 64C124 30.8629 97.1371 4 64 4C30.8629 4 4 30.8629 4 64C4 97.1371 30.8629 124 64 124Z" fill="#2BD665"/>
<path d="M56 36C56 44.8 48.8 52 40 52C31.2 52 24 44.8 24 36C24 27.2 31.2 20 40 20C48.8 20 56 27.2 56 36Z" fill="#C14F3B"/>
<path d="M48.5 38.8L42.8 44.5C41.2 46.1 38.7 46.1 37.1 44.5L34.3 41.7C31.2 38.6 31.2 33.5 34.3 30.4C37.4 27.3 42.5 27.3 45.6 30.4L48.4 33.2C50 34.7 50 37.3 48.5 38.8Z" fill="#F3A9B1"/>
<path d="M92 52C83.2 52 76 44.8 76 36C76 27.2 83.2 20 92 20C100.8 20 108 27.2 108 36C108 44.8 100.8 52 92 52Z" fill="#D76B5A"/>
<path d="M89.2 44.5L83.5 38.8C81.9 37.2 81.9 34.7 83.5 33.1L86.3001 30.3C89.4001 27.2 94.5 27.2 97.6 30.3C100.7 33.4 100.7 38.5 97.6 41.6L94.8001 44.4C93.3001 46 90.7 46 89.2 44.5Z" fill="#F3A9B1"/>
<path d="M100 128H28V56C28 36.2 44.2 20 64 20C83.8 20 100 36.2 100 56V128Z" fill="#D76B5A"/>
<path d="M96 72C94.9 72 94 71.1 94 70V66C94 64.9 94.9 64 96 64C97.1 64 98 64.9 98 66V70C98 71.1 97.1 72 96 72Z" fill="#C14F3B"/>
<path d="M88 84C86.9 84 86 83.1 86 82V78C86 76.9 86.9 76 88 76C89.1 76 90 76.9 90 78V82C90 83.1 89.1 84 88 84Z" fill="#C14F3B"/>
<path d="M96 96C94.9 96 94 95.1 94 94V90C94 88.9 94.9 88 96 88C97.1 88 98 88.9 98 90V94C98 95.1 97.1 96 96 96Z" fill="#C14F3B"/>
<path d="M88 108C86.9 108 86 107.1 86 106V102C86 100.9 86.9 100 88 100C89.1 100 90 100.9 90 102V106C90 107.1 89.1 108 88 108Z" fill="#C14F3B"/>
<path d="M80 120C78.9 120 78 119.1 78 118V114C78 112.9 78.9 112 80 112C81.1 112 82 112.9 82 114V118C82 119.1 81.1 120 80 120Z" fill="#C14F3B"/>
<path d="M72 128C70.9 128 70 127.1 70 126V122C70 120.9 70.9 120 72 120C73.1 120 74 120.9 74 122V126C74 127.1 73.1 128 72 128Z" fill="#C14F3B"/>
<path d="M40 124C38.9 124 38 123.1 38 122V118C38 116.9 38.9 116 40 116C41.1 116 42 116.9 42 118V122C42 123.1 41.1 124 40 124Z" fill="#C14F3B"/>
<path d="M32 112C30.9 112 30 111.1 30 110V106C30 104.9 30.9 104 32 104C33.1 104 34 104.9 34 106V110C34 111.1 33.1 112 32 112Z" fill="#C14F3B"/>
<path d="M96 120C94.9 120 94 119.1 94 118V114C94 112.9 94.9 112 96 112C97.1 112 98 112.9 98 114V118C98 119.1 97.1 120 96 120Z" fill="#C14F3B"/>
<path d="M56 100C49.4 100 44 94.6 44 88V84H68V88C68 94.6 62.6 100 56 100Z" fill="#FFA47A"/>
<path d="M64 94H56C53.8 94 52 92.2 52 90V62H60C68.8 62 76 69.2 76 78V82C76 88.6 70.6 94 64 94Z" fill="#FFBB9B"/>
<path d="M48 94C50.2 94 52 92.2 52 90V62C43.2 62 36 69.2 36 78V82C36 88.6 41.4 94 48 94Z" fill="#FFBB9B"/>
<path d="M68 60C70.2091 60 72 58.2091 72 56C72 53.7909 70.2091 52 68 52C65.7909 52 64 53.7909 64 56C64 58.2091 65.7909 60 68 60Z" fill="#603535"/>
<path d="M52 60C54.2091 60 56 58.2091 56 56C56 53.7909 54.2091 52 52 52C49.7909 52 48 53.7909 48 56C48 58.2091 49.7909 60 52 60Z" fill="#603535"/>
<path d="M50 66H54C56.2 66 58 67.8 58 70V72C58 75.3 55.3 78 52 78C48.7 78 46 75.3 46 72V70C46 67.8 47.8 66 50 66Z" fill="#343A40"/>
<path d="M72 44C72 45.1 71.1 46 70 46H66C64.9 46 64 45.1 64 44C64 42.9 64.9 42 66 42H70C71.1 42 72 42.9 72 44Z" fill="#C14F3B"/>
<path d="M56 48C56 49.1 55.1 50 54 50H50C48.9 50 48 49.1 48 48C48 46.9 48.9 46 50 46H54C55.1 46 56 46.9 56 48Z" fill="#C14F3B"/>
</svg>
