<svg width="128" height="132" viewBox="0 0 128 132" fill="none" xmlns="http://www.w3.org/2000/svg">
<path d="M64 124C97.1371 124 124 97.1371 124 64C124 30.8629 97.1371 4 64 4C30.8629 4 4 30.8629 4 64C4 97.1371 30.8629 124 64 124Z" fill="#CC2996"/>
<path d="M64 124C97.1371 124 124 97.1371 124 64C124 30.8629 97.1371 4 64 4C30.8629 4 4 30.8629 4 64C4 97.1371 30.8629 124 64 124Z" fill="#7732D1"/>
<path d="M88 132H40V108C40 94.7 50.7 84 64 84C77.3 84 88 94.7 88 108V132Z" fill="#FFC74D"/>
<path d="M43.2 96H84.6999C80.5999 88.8 72.9 84 64 84C55.1 84 47.4 88.8 43.2 96Z" fill="#FFBE33"/>
<path d="M100 92H72V28H100C102.2 28 104 29.8 104 32V88C104 90.2 102.2 92 100 92Z" fill="#C07867"/>
<path d="M92 52V32C92 29.8 90.2 28 88 28H96C98.2 28 100 29.8 100 32V52H92Z" fill="#F4A568"/>
<path d="M84 92H28C25.8 92 24 90.2 24 88V32C24 29.8 25.8 28 28 28H84C86.2 28 88 29.8 88 32V88C88 90.2 86.2 92 84 92Z" fill="#F4A568"/>
<path d="M72 64H40C35.6 64 32 60.4 32 56C32 51.6 35.6 48 40 48H72C76.4 48 80 51.6 80 56C80 60.4 76.4 64 72 64Z" fill="#FFBB9B"/>
<path d="M40 56C40 51.6 43.6 48 48 48H40C35.6 48 32 51.6 32 56C32 60.4 35.6 64 40 64H48C43.6 64 40 60.4 40 56Z" fill="#C07867"/>
<path d="M68 60C70.2091 60 72 58.2091 72 56C72 53.7909 70.2091 52 68 52C65.7909 52 64 53.7909 64 56C64 58.2091 65.7909 60 68 60Z" fill="#603535"/>
<path d="M52 60C54.2091 60 56 58.2091 56 56C56 53.7909 54.2091 52 52 52C49.7909 52 48 53.7909 48 56C48 58.2091 49.7909 60 52 60Z" fill="#603535"/>
</svg>
