<svg width="128" height="136" viewBox="0 0 128 136" fill="none" xmlns="http://www.w3.org/2000/svg">
<path d="M64 124C97.1371 124 124 97.1371 124 64C124 30.8629 97.1371 4 64 4C30.8629 4 4 30.8629 4 64C4 97.1371 30.8629 124 64 124Z" fill="#6521CC"/>
<path d="M88 100H76C71.6 100 68 96.4 68 92V56C68 45 77 36 88 36C99 36 108 45 108 56V80C108 91 99 100 88 100Z" fill="#FF85C8"/>
<path d="M100 136H36V128C36 108.2 52.2 92 72 92H100V136Z" fill="#F8F9FA"/>
<path d="M92 128H44C44 114.7 54.7 104 68 104C81.3 104 92 114.7 92 128Z" fill="#DED4FF"/>
<path d="M100 96H60C38 96 20 78 20 56C20 49.4 25.4 44 32 44H100V96Z" fill="#F8F9FA"/>
<path d="M32 72H28C23.6 72 20 68.4 20 64V56C20 49.4 25.4 44 32 44C38.6 44 44 49.4 44 56V60C44 66.6 38.6 72 32 72Z" fill="#DED4FF"/>
<path d="M34 68C35.1046 68 36 67.1046 36 66C36 64.8954 35.1046 64 34 64C32.8954 64 32 64.8954 32 66C32 67.1046 32.8954 68 34 68Z" fill="#B199FF"/>
<path d="M26 68C27.1046 68 28 67.1046 28 66C28 64.8954 27.1046 64 26 64C24.8954 64 24 64.8954 24 66C24 67.1046 24.8954 68 26 68Z" fill="#B199FF"/>
<path d="M68 60C70.2091 60 72 58.2091 72 56C72 53.7909 70.2091 52 68 52C65.7909 52 64 53.7909 64 56C64 58.2091 65.7909 60 68 60Z" fill="#603535"/>
<path d="M52 60C54.2091 60 56 58.2091 56 56C56 53.7909 54.2091 52 52 52C49.7909 52 48 53.7909 48 56C48 58.2091 49.7909 60 52 60Z" fill="#603535"/>
<path d="M88 36V54H100V36C100 32.7 97.3 30 94 30C90.7 30 88 32.7 88 36Z" fill="#F8F9FA"/>
<path d="M92 36V42H96V36C96 34.9 95.1 34 94 34C92.9 34 92 34.9 92 36Z" fill="#FFADDA"/>
<path d="M72 24H64C64 21.8 65.8 20 68 20C70.2 20 72 21.8 72 24Z" fill="#FFAA00"/>
<path d="M72 24H64V28H72V24Z" fill="#FFCE47"/>
<path d="M72 28H64V32H72V28Z" fill="#FFAA00"/>
<path d="M72 32H64V36H72V32Z" fill="#FFCE47"/>
<path d="M72 36H64V40H72V36Z" fill="#FFAA00"/>
<path d="M72 40H64V44H72V40Z" fill="#FFCE47"/>
</svg>
