<svg width="24" height="24" viewBox="0 0 24 24" fill="none" xmlns="http://www.w3.org/2000/svg">
<path d="M12.1096 24C7.85817 24 5.73244 24 3.77255 22.7591C2.9369 22.23 1.89838 21.2067 1.357 20.3789C0.0872681 18.4375 0.0607656 16.6423 0.00776052 13.0517C0.00267525 12.7072 1.38847e-07 12.3565 1.43099e-07 12C1.4735e-07 11.6435 0.00267527 11.2928 0.00776058 10.9483C0.0607658 7.35774 0.0872684 5.56245 1.357 3.62109C1.89838 2.79334 2.9369 1.77004 3.77255 1.24093C5.73244 -2.89269e-07 7.85817 -2.6392e-07 12.1096 -2.13222e-07V-2.13222e-07C16.2109 -1.64314e-07 18.2616 -1.39861e-07 20.2201 1.23858C21.0439 1.75951 22.1009 2.79947 22.6352 3.61462C23.9055 5.55276 23.9335 7.27753 23.9897 10.7271C23.9964 11.1408 24 11.5651 24 12C24 12.4349 23.9964 12.8592 23.9897 13.2729C23.9335 16.7225 23.9055 18.4472 22.6352 20.3854C22.1009 21.2005 21.0439 22.2405 20.2201 22.7614C18.2616 24 16.2109 24 12.1096 24V24Z" fill="#F0F0F0"/>
<path d="M12 6C8.688 6 6 8.688 6 12C6 15.312 8.688 18 12 18H15V16.8H12C9.396 16.8 7.2 14.604 7.2 12C7.2 9.396 9.396 7.2 12 7.2C14.604 7.2 16.8 9.396 16.8 12V12.858C16.8 13.332 16.374 13.8 15.9 13.8C15.426 13.8 15 13.332 15 12.858V12C15 10.344 13.656 9 12 9C10.344 9 9 10.344 9 12C9 13.656 10.344 15 12 15C12.828 15 13.584 14.664 14.124 14.118C14.514 14.652 15.186 15 15.9 15C17.082 15 18 14.04 18 12.858V12C18 8.688 15.312 6 12 6V6ZM12 13.8C11.004 13.8 10.2 12.996 10.2 12C10.2 11.004 11.004 10.2 12 10.2C12.996 10.2 13.8 11.004 13.8 12C13.8 12.996 12.996 13.8 12 13.8Z" fill="#989898"/>
</svg>
