<svg width="16" height="16" viewBox="0 0 16 16" fill="none" xmlns="http://www.w3.org/2000/svg">
<path d="M12.1053 5.15789V7.04632C12.1053 7.04632 10.8484 7.05263 10.8421 7.04632V5.15789H8.94737C8.94737 5.15789 8.95368 3.90105 8.94737 3.89474H10.8421V2H12.1053V3.89474H14V5.15789H12.1053ZM10.2105 7.68421V5.78947H8.31579V3.89474H3.26316C2.56842 3.89474 2 4.46316 2 5.15789V12.7368C2 13.4316 2.56842 14 3.26316 14H10.8421C11.5368 14 12.1053 13.4316 12.1053 12.7368V7.68421H10.2105ZM3.26316 12.7368L5.15789 10.2105L6.42105 12.1053L8.31579 9.57895L10.8421 12.7368H3.26316Z" fill="#989898"/>
</svg>
