<svg width="24" height="24" viewBox="0 0 24 24" fill="none" xmlns="http://www.w3.org/2000/svg">
<path d="M12.1096 24C7.85817 24 5.73244 24 3.77255 22.7591C2.9369 22.23 1.89838 21.2067 1.357 20.3789C0.0872681 18.4375 0.0607656 16.6423 0.00776052 13.0517C0.00267525 12.7072 1.38847e-07 12.3565 1.43099e-07 12C1.4735e-07 11.6435 0.00267527 11.2928 0.00776058 10.9483C0.0607658 7.35774 0.0872684 5.56245 1.357 3.62109C1.89838 2.79334 2.9369 1.77004 3.77255 1.24093C5.73244 -2.89269e-07 7.85817 -2.6392e-07 12.1096 -2.13222e-07V-2.13222e-07C16.2109 -1.64314e-07 18.2616 -1.39861e-07 20.2201 1.23858C21.0439 1.75951 22.1009 2.79947 22.6352 3.61462C23.9055 5.55276 23.9335 7.27753 23.9897 10.7271C23.9964 11.1408 24 11.5651 24 12C24 12.4349 23.9964 12.8592 23.9897 13.2729C23.9335 16.7225 23.9055 18.4472 22.6352 20.3854C22.1009 21.2005 21.0439 22.2405 20.2201 22.7614C18.2616 24 16.2109 24 12.1096 24V24Z" fill="#F0F0F0"/>
<path d="M17.1429 9H14.5714V9.85714H17.1429V11.5714H15.4286V12.4286H17.1429V14.1429H14.5714V15H17.1429C17.3701 14.9997 17.5879 14.9092 17.7486 14.7486C17.9092 14.5879 17.9997 14.3701 18 14.1429V9.85714C17.9998 9.62988 17.9094 9.412 17.7487 9.2513C17.588 9.09061 17.3701 9.00023 17.1429 9ZM13.7143 15H10.2857V12.4286C10.2859 12.2013 10.3763 11.9834 10.537 11.8227C10.6977 11.662 10.9156 11.5717 11.1429 11.5714H12.8571V9.85714H10.2857V9H12.8571C13.0844 9.00023 13.3023 9.09061 13.463 9.2513C13.6237 9.412 13.7141 9.62988 13.7143 9.85714V11.5714C13.7141 11.7987 13.6237 12.0166 13.463 12.1773C13.3023 12.338 13.0844 12.4283 12.8571 12.4286H11.1429V14.1429H13.7143V15ZM6.21429 14.7857V14.3571H7.5V9.64286H6.21429V9.21429H7.92857V14.3571H9.21429V14.7857H6.21429Z" fill="#989898"/>
<path d="M8.14286 9H6V9.85714H7.28571V14.1429H6V15H9.42857V14.1429H8.14286V9Z" fill="#989898"/>
</svg>
