<svg width="24" height="24" viewBox="0 0 24 24" fill="none" xmlns="http://www.w3.org/2000/svg">
<path d="M12.1096 24C7.85817 24 5.73244 24 3.77255 22.7591C2.9369 22.23 1.89838 21.2067 1.357 20.3789C0.0872681 18.4375 0.0607656 16.6423 0.00776052 13.0517C0.00267525 12.7072 1.38847e-07 12.3565 1.43099e-07 12C1.4735e-07 11.6435 0.00267527 11.2928 0.00776058 10.9483C0.0607658 7.35774 0.0872684 5.56245 1.357 3.62109C1.89838 2.79334 2.9369 1.77004 3.77255 1.24093C5.73244 6.83587e-08 7.85817 9.37078e-08 12.1096 1.44406e-07C16.2109 1.93313e-07 18.2616 2.17767e-07 20.2201 1.23858C21.0439 1.75951 22.1009 2.79947 22.6352 3.61462C23.9055 5.55276 23.9335 7.27753 23.9897 10.7271C23.9964 11.1408 24 11.5651 24 12C24 12.4349 23.9964 12.8592 23.9897 13.2729C23.9335 16.7225 23.9055 18.4472 22.6352 20.3854C22.1009 21.2005 21.0439 22.2405 20.2201 22.7614C18.2616 24 16.2109 24 12.1096 24Z" fill="#E4FFFF"/>
<path d="M8 6C8 7.54286 8.89143 8.94857 10.2857 9.61143V18H11.4286V14H12.5714V18H13.7143V9.60571C15.1086 8.94857 16 7.54286 16 6H14.8571C14.8571 6.75776 14.5561 7.48449 14.0203 8.02031C13.755 8.28562 13.44 8.49607 13.0934 8.63966C12.7467 8.78324 12.3752 8.85714 12 8.85714C11.2422 8.85714 10.5155 8.55612 9.9797 8.02031C9.44388 7.48449 9.14286 6.75776 9.14286 6M12 6C11.3657 6 10.8571 6.50857 10.8571 7.14286C10.8571 7.77714 11.3657 8.28571 12 8.28571C12.6343 8.28571 13.1429 7.77714 13.1429 7.14286C13.1429 6.50857 12.6343 6 12 6Z" fill="#02C6E1"/>
</svg>
