<svg width="24" height="24" viewBox="0 0 24 24" fill="none" xmlns="http://www.w3.org/2000/svg">
<path d="M12.1096 24C7.85817 24 5.73244 24 3.77255 22.7591C2.9369 22.23 1.89838 21.2067 1.357 20.3789C0.0872681 18.4375 0.0607656 16.6423 0.00776052 13.0517C0.00267525 12.7072 1.38847e-07 12.3565 1.43099e-07 12C1.4735e-07 11.6435 0.00267527 11.2928 0.00776058 10.9483C0.0607658 7.35774 0.0872684 5.56245 1.357 3.62109C1.89838 2.79334 2.9369 1.77004 3.77255 1.24093C5.73244 -2.89269e-07 7.85817 -2.6392e-07 12.1096 -2.13222e-07V-2.13222e-07C16.2109 -1.64314e-07 18.2616 -1.39861e-07 20.2201 1.23858C21.0439 1.75951 22.1009 2.79947 22.6352 3.61462C23.9055 5.55276 23.9335 7.27753 23.9897 10.7271C23.9964 11.1408 24 11.5651 24 12C24 12.4349 23.9964 12.8592 23.9897 13.2729C23.9335 16.7225 23.9055 18.4472 22.6352 20.3854C22.1009 21.2005 21.0439 22.2405 20.2201 22.7614C18.2616 24 16.2109 24 12.1096 24V24Z" fill="#F0F0F0"/>
<path d="M17.1429 8H6.85714C6.62981 8 6.4118 8.09031 6.25105 8.25105C6.09031 8.4118 6 8.62981 6 8.85714V15.7143C6 15.9416 6.09031 16.1596 6.25105 16.3204C6.4118 16.4811 6.62981 16.5714 6.85714 16.5714H17.1429C17.3702 16.5714 17.5882 16.4811 17.7489 16.3204C17.9097 16.1596 18 15.9416 18 15.7143V8.85714C18 8.62981 17.9097 8.4118 17.7489 8.25105C17.5882 8.09031 17.3702 8 17.1429 8V8ZM16.2 8.85714L12 11.7629L7.8 8.85714H16.2ZM6.85714 15.7143V9.24714L11.7557 12.6371C11.8275 12.6869 11.9127 12.7136 12 12.7136C12.0873 12.7136 12.1725 12.6869 12.2443 12.6371L17.1429 9.24714V15.7143H6.85714Z" fill="#989898"/>
</svg>
