<svg width="24" height="24" viewBox="0 0 24 24" fill="none" xmlns="http://www.w3.org/2000/svg">
<path d="M12.1096 24C7.85817 24 5.73244 24 3.77255 22.7591C2.9369 22.23 1.89838 21.2067 1.357 20.3789C0.0872681 18.4375 0.0607656 16.6423 0.00776052 13.0517C0.00267525 12.7072 1.38847e-07 12.3565 1.43099e-07 12C1.4735e-07 11.6435 0.00267527 11.2928 0.00776058 10.9483C0.0607658 7.35774 0.0872684 5.56245 1.357 3.62109C1.89838 2.79334 2.9369 1.77004 3.77255 1.24093C5.73244 -2.89269e-07 7.85817 -2.6392e-07 12.1096 -2.13222e-07V-2.13222e-07C16.2109 -1.64314e-07 18.2616 -1.39861e-07 20.2201 1.23858C21.0439 1.75951 22.1009 2.79947 22.6352 3.61462C23.9055 5.55276 23.9335 7.27753 23.9897 10.7271C23.9964 11.1408 24 11.5651 24 12C24 12.4349 23.9964 12.8592 23.9897 13.2729C23.9335 16.7225 23.9055 18.4472 22.6352 20.3854C22.1009 21.2005 21.0439 22.2405 20.2201 22.7614C18.2616 24 16.2109 24 12.1096 24V24Z" fill="#F0F0F0"/>
<path d="M11.5 15.5V16C11.5 16.1326 11.4473 16.2598 11.3536 16.3536C11.2598 16.4473 11.1326 16.5 11 16.5H10V17C10 17.2652 9.89464 17.5196 9.70711 17.7071C9.51957 17.8946 9.26522 18 9 18H7C6.73478 18 6.48043 17.8946 6.29289 17.7071C6.10536 17.5196 6 17.2652 6 17V15.707C6.00006 15.4418 6.10545 15.1875 6.293 15L10.163 11.13C9.92571 10.3242 9.94809 9.46422 10.227 8.67189C10.5059 7.87957 11.0271 7.19515 11.7168 6.71568C12.4065 6.23621 13.2296 5.98602 14.0695 6.0006C14.9093 6.01518 15.7233 6.29378 16.3959 6.7969C17.0686 7.30001 17.5657 8.00211 17.817 8.80364C18.0682 9.60517 18.0607 10.4654 17.7956 11.2625C17.5305 12.0595 17.0212 12.7529 16.3399 13.2442C15.6586 13.7356 14.84 14 14 14H12.999V15C12.999 15.1326 12.9463 15.2598 12.8526 15.3536C12.7588 15.4473 12.6316 15.5 12.499 15.5H11.499H11.5ZM15 10C15.2652 10 15.5196 9.89464 15.7071 9.70711C15.8946 9.51957 16 9.26522 16 9C16 8.73478 15.8946 8.48043 15.7071 8.29289C15.5196 8.10536 15.2652 8 15 8C14.7348 8 14.4804 8.10536 14.2929 8.29289C14.1054 8.48043 14 8.73478 14 9C14 9.26522 14.1054 9.51957 14.2929 9.70711C14.4804 9.89464 14.7348 10 15 10V10Z" fill="#989898"/>
</svg>
