<svg width="24" height="24" viewBox="0 0 24 24" fill="none" xmlns="http://www.w3.org/2000/svg">
<path d="M12.1096 24C7.85817 24 5.73244 24 3.77255 22.7591C2.9369 22.23 1.89838 21.2067 1.357 20.3789C0.0872681 18.4375 0.0607656 16.6423 0.00776052 13.0517C0.00267525 12.7072 1.38847e-07 12.3565 1.43099e-07 12C1.4735e-07 11.6435 0.00267527 11.2928 0.00776058 10.9483C0.0607658 7.35774 0.0872684 5.56245 1.357 3.62109C1.89838 2.79334 2.9369 1.77004 3.77255 1.24093C5.73244 6.83587e-08 7.85817 9.37078e-08 12.1096 1.44406e-07C16.2109 1.93313e-07 18.2616 2.17767e-07 20.2201 1.23858C21.0439 1.75951 22.1009 2.79947 22.6352 3.61462C23.9055 5.55276 23.9335 7.27753 23.9897 10.7271C23.9964 11.1408 24 11.5651 24 12C24 12.4349 23.9964 12.8592 23.9897 13.2729C23.9335 16.7225 23.9055 18.4472 22.6352 20.3854C22.1009 21.2005 21.0439 22.2405 20.2201 22.7614C18.2616 24 16.2109 24 12.1096 24Z" fill="#FFDADA"/>
<path d="M16.2857 6C16.4607 6.00002 16.6295 6.06425 16.7603 6.18051C16.891 6.29677 16.9745 6.45696 16.995 6.63071L17 6.71429V18.1429C16.9998 18.3249 16.9301 18.5 16.8051 18.6324C16.6801 18.7648 16.5093 18.8445 16.3276 18.8551C16.1458 18.8658 15.9669 18.8067 15.8273 18.6898C15.6877 18.573 15.5979 18.4072 15.5764 18.2264L15.5714 18.1429V14.5714H14.8571C14.6822 14.5714 14.5133 14.5072 14.3826 14.3909C14.2519 14.2747 14.1683 14.1145 14.1479 13.9407L14.1429 13.8571V9.57143C14.1429 7.99286 15.2143 6 16.2857 6ZM12 6C12.175 6.00002 12.3438 6.06425 12.4746 6.18051C12.6053 6.29677 12.6888 6.45696 12.7093 6.63071L12.7143 6.71429V10.2857C12.7142 10.9192 12.5037 11.5347 12.1158 12.0356C11.728 12.5364 11.1847 12.8942 10.5714 13.0529V18.1429C10.5712 18.3249 10.5015 18.5 10.3765 18.6324C10.2516 18.7648 10.0807 18.8445 9.899 18.8551C9.71726 18.8658 9.5383 18.8067 9.39869 18.6898C9.25908 18.573 9.16936 18.4072 9.14786 18.2264L9.14286 18.1429V13.0529C8.55389 12.9006 8.02886 12.5644 7.64412 12.0932C7.25937 11.622 7.03498 11.0404 7.00357 10.4329L7 10.2857V6.71429C7.0002 6.53223 7.06991 6.35712 7.19489 6.22474C7.31987 6.09235 7.49068 6.01269 7.67242 6.00202C7.85417 5.99135 8.03313 6.05048 8.17274 6.16733C8.31235 6.28418 8.40207 6.44993 8.42357 6.63071L8.42857 6.71429V10.2857C8.42858 10.5365 8.49459 10.7828 8.61997 11C8.74536 11.2171 8.92569 11.3975 9.14286 11.5229V6.71429C9.14306 6.53223 9.21277 6.35712 9.33775 6.22474C9.46273 6.09235 9.63354 6.01269 9.81528 6.00202C9.99703 5.99135 10.176 6.05048 10.3156 6.16733C10.4552 6.28418 10.5449 6.44993 10.5664 6.63071L10.5714 6.71429L10.5721 11.5229C10.7715 11.4076 10.94 11.2459 11.0634 11.0516C11.1867 10.8572 11.2613 10.6358 11.2807 10.4064L11.2857 10.2857V6.71429C11.2857 6.52485 11.361 6.34316 11.4949 6.20921C11.6289 6.07525 11.8106 6 12 6Z" fill="#ED0D0D"/>
</svg>
