<svg width="24" height="24" viewBox="0 0 24 24" fill="none" xmlns="http://www.w3.org/2000/svg">
<path d="M12.1096 24C7.85817 24 5.73244 24 3.77255 22.7591C2.9369 22.23 1.89838 21.2067 1.357 20.3789C0.0872681 18.4375 0.0607656 16.6423 0.00776052 13.0517C0.00267525 12.7072 1.38847e-07 12.3565 1.43099e-07 12C1.4735e-07 11.6435 0.00267527 11.2928 0.00776058 10.9483C0.0607658 7.35774 0.0872684 5.56245 1.357 3.62109C1.89838 2.79334 2.9369 1.77004 3.77255 1.24093C5.73244 6.83587e-08 7.85817 9.37078e-08 12.1096 1.44406e-07C16.2109 1.93313e-07 18.2616 2.17767e-07 20.2201 1.23858C21.0439 1.75951 22.1009 2.79947 22.6352 3.61462C23.9055 5.55276 23.9335 7.27753 23.9897 10.7271C23.9964 11.1408 24 11.5651 24 12C24 12.4349 23.9964 12.8592 23.9897 13.2729C23.9335 16.7225 23.9055 18.4472 22.6352 20.3854C22.1009 21.2005 21.0439 22.2405 20.2201 22.7614C18.2616 24 16.2109 24 12.1096 24Z" fill="#F0F0F0"/>
<path d="M12 12.75C13.8633 12.75 15.375 11.2383 15.375 9.375C15.375 7.51172 13.8633 6 12 6C10.1367 6 8.625 7.51172 8.625 9.375C8.625 11.2383 10.1367 12.75 12 12.75ZM9.78047 13.5C7.69219 13.5 6 15.1922 6 17.2805C6 17.6789 6.32344 18 6.71953 18H17.2805C17.6789 18 18 17.6766 18 17.2805C18 15.1922 16.3078 13.5 14.2195 13.5H9.78047Z" fill="#989898"/>
</svg>
