<svg width="24" height="24" viewBox="0 0 24 24" fill="none" xmlns="http://www.w3.org/2000/svg">
<path d="M12.1096 24C7.85817 24 5.73244 24 3.77255 22.7591C2.9369 22.23 1.89838 21.2067 1.357 20.3789C0.0872681 18.4375 0.0607656 16.6423 0.00776052 13.0517C0.00267525 12.7072 1.38847e-07 12.3565 1.43099e-07 12C1.4735e-07 11.6435 0.00267527 11.2928 0.00776058 10.9483C0.0607658 7.35774 0.0872684 5.56245 1.357 3.62109C1.89838 2.79334 2.9369 1.77004 3.77255 1.24093C5.73244 6.83587e-08 7.85817 9.37078e-08 12.1096 1.44406e-07C16.2109 1.93313e-07 18.2616 2.17767e-07 20.2201 1.23858C21.0439 1.75951 22.1009 2.79947 22.6352 3.61462C23.9055 5.55276 23.9335 7.27753 23.9897 10.7271C23.9964 11.1408 24 11.5651 24 12C24 12.4349 23.9964 12.8592 23.9897 13.2729C23.9335 16.7225 23.9055 18.4472 22.6352 20.3854C22.1009 21.2005 21.0439 22.2405 20.2201 22.7614C18.2616 24 16.2109 24 12.1096 24Z" fill="#FFDADA"/>
<path d="M7 7.125C7 6.82663 7.11853 6.54048 7.3295 6.3295C7.54048 6.11853 7.82663 6 8.125 6H13.375C13.6734 6 13.9595 6.11853 14.1705 6.3295C14.3815 6.54048 14.5 6.82663 14.5 7.125V8.46975L16.951 10.9207C17.3024 11.2723 17.4999 11.7489 17.5 12.246V17.625C17.5 17.7245 17.4605 17.8198 17.3902 17.8902C17.3198 17.9605 17.2245 18 17.125 18C17.0255 18 16.9302 17.9605 16.8598 17.8902C16.7895 17.8198 16.75 17.7245 16.75 17.625V12.246C16.7497 11.9477 16.631 11.6618 16.42 11.451L14.5 9.531V11.8448L15.1405 12.4845C15.2108 12.5549 15.2503 12.6504 15.2502 12.7499C15.2501 12.8494 15.2105 12.9448 15.1401 13.0151C15.1053 13.0499 15.0639 13.0776 15.0183 13.0964C14.9728 13.1152 14.924 13.1249 14.8747 13.1248C14.7752 13.1248 14.6798 13.0852 14.6095 13.0147L12.3595 10.7647C12.043 10.4482 11.8667 10.4618 11.7895 10.4812C11.6597 10.5128 11.545 10.6163 11.3845 10.7708C11.3095 10.8428 11.278 10.9132 11.293 11.0182C11.3125 11.1495 11.4152 11.3842 11.7655 11.7345L12.6753 12.6442L12.8897 12.8595C12.9247 12.8943 12.9524 12.9357 12.9713 12.9813C12.9902 13.0268 13 13.0757 13 13.125C13 13.7055 13.0045 14.2898 13.165 14.7308C13.2415 14.9415 13.3457 15.0953 13.483 15.198C13.6172 15.2985 13.8152 15.375 14.125 15.375C14.2245 15.375 14.3198 15.4145 14.3902 15.4848C14.4605 15.5552 14.5 15.6505 14.5 15.75V16.875C14.5 17.1734 14.3815 17.4595 14.1705 17.6705C13.9595 17.8815 13.6734 18 13.375 18H8.125C7.82663 18 7.54048 17.8815 7.3295 17.6705C7.11853 17.4595 7 17.1734 7 16.875V7.125ZM10.75 10.125C10.4351 10.125 10.1252 10.2042 9.84895 10.3556C9.57273 10.5069 9.33907 10.7253 9.16955 10.9907C9.00002 11.2562 8.90008 11.56 8.87896 11.8743C8.85784 12.1885 8.91622 12.503 9.0487 12.7887C9.18118 13.0744 9.3835 13.3222 9.63699 13.5091C9.89048 13.696 10.187 13.8161 10.4991 13.8582C10.8112 13.9003 11.1289 13.8631 11.4229 13.75C11.7168 13.6369 11.9775 13.4517 12.181 13.2112L12.1435 13.1737L11.2345 12.2647C10.8347 11.865 10.6045 11.4892 10.5512 11.1277C10.5254 10.9635 10.5406 10.7954 10.5956 10.6385C10.6506 10.4816 10.7436 10.3407 10.8662 10.2285L10.8917 10.2038L10.9622 10.1363C10.8918 10.1285 10.8209 10.1248 10.75 10.125ZM12.25 16.875V17.25H13V16.875C13 16.7755 13.0395 16.6802 13.1098 16.6098C13.1802 16.5395 13.2755 16.5 13.375 16.5H13.75V16.095C13.4924 16.0559 13.248 15.9553 13.0375 15.8018C12.8091 15.8736 12.6096 16.0164 12.468 16.2094C12.3263 16.4024 12.25 16.6356 12.25 16.875ZM7.75 8.25H8.125C8.42337 8.25 8.70952 8.13147 8.9205 7.9205C9.13147 7.70952 9.25 7.42337 9.25 7.125V6.75H8.5V7.125C8.5 7.22446 8.46049 7.31984 8.39016 7.39016C8.31984 7.46049 8.22446 7.5 8.125 7.5H7.75V8.25ZM12.25 7.125C12.25 7.42337 12.3685 7.70952 12.5795 7.9205C12.7905 8.13147 13.0766 8.25 13.375 8.25H13.75V7.5H13.375C13.2755 7.5 13.1802 7.46049 13.1098 7.39016C13.0395 7.31984 13 7.22446 13 7.125V6.75H12.25V7.125ZM9.25 16.875C9.25 16.5766 9.13147 16.2905 8.9205 16.0795C8.70952 15.8685 8.42337 15.75 8.125 15.75H7.75V16.5H8.125C8.22446 16.5 8.31984 16.5395 8.39016 16.6098C8.46049 16.6802 8.5 16.7755 8.5 16.875V17.25H9.25V16.875Z" fill="#ED0D0D"/>
</svg>
