<svg width="24" height="24" viewBox="0 0 24 24" fill="none" xmlns="http://www.w3.org/2000/svg">
<path d="M12.1096 24C7.85817 24 5.73244 24 3.77255 22.7591C2.9369 22.23 1.89838 21.2067 1.357 20.3789C0.0872681 18.4375 0.0607656 16.6423 0.00776052 13.0517C0.00267525 12.7072 1.38847e-07 12.3565 1.43099e-07 12C1.4735e-07 11.6435 0.00267527 11.2928 0.00776058 10.9483C0.0607658 7.35774 0.0872684 5.56245 1.357 3.62109C1.89838 2.79334 2.9369 1.77004 3.77255 1.24093C5.73244 6.83587e-08 7.85817 9.37078e-08 12.1096 1.44406e-07C16.2109 1.93313e-07 18.2616 2.17767e-07 20.2201 1.23858C21.0439 1.75951 22.1009 2.79947 22.6352 3.61462C23.9055 5.55276 23.9335 7.27753 23.9897 10.7271C23.9964 11.1408 24 11.5651 24 12C24 12.4349 23.9964 12.8592 23.9897 13.2729C23.9335 16.7225 23.9055 18.4472 22.6352 20.3854C22.1009 21.2005 21.0439 22.2405 20.2201 22.7614C18.2616 24 16.2109 24 12.1096 24Z" fill="#F1E8DB"/>
<path d="M10.2854 17.5715V14.5674C10.2854 14.3574 10.4997 14.1431 10.714 14.1431H12.4282C12.6424 14.1431 12.8567 14.3574 12.8567 14.5716V17.5715C12.8567 17.6851 12.9019 17.7941 12.9822 17.8745C13.0626 17.9549 13.1716 18 13.2853 18H16.7136C16.8273 18 16.9363 17.9549 17.0166 17.8745C17.097 17.7941 17.1421 17.6851 17.1421 17.5715V11.5718C17.1422 11.5155 17.1312 11.4597 17.1098 11.4077C17.0883 11.3556 17.0568 11.3083 17.017 11.2684L15.8565 10.1088V7.2864C15.8565 7.17274 15.8114 7.06374 15.731 6.98337C15.6506 6.903 15.5416 6.85785 15.428 6.85785H14.5709C14.4572 6.85785 14.3482 6.903 14.2679 6.98337C14.1875 7.06374 14.1423 7.17274 14.1423 7.2864V8.39461L11.8745 6.1259C11.8347 6.08599 11.7874 6.05433 11.7353 6.03272C11.6833 6.01112 11.6274 6 11.5711 6C11.5147 6 11.4589 6.01112 11.4068 6.03272C11.3548 6.05433 11.3075 6.08599 11.2677 6.1259L6.12514 11.2684C6.08537 11.3083 6.05384 11.3556 6.03237 11.4077C6.0109 11.4597 5.9999 11.5155 6 11.5718V17.5715C6 17.6851 6.04515 17.7941 6.12552 17.8745C6.20589 17.9549 6.31489 18 6.42854 18H9.8569C9.97055 18 10.0796 17.9549 10.1599 17.8745C10.2403 17.7941 10.2854 17.6851 10.2854 17.5715Z" fill="#CE8D2C"/>
</svg>
