<svg width="24" height="24" viewBox="0 0 24 24" fill="none" xmlns="http://www.w3.org/2000/svg">
<path d="M12.1096 24C7.85817 24 5.73244 24 3.77255 22.7591C2.9369 22.23 1.89838 21.2067 1.357 20.3789C0.0872681 18.4375 0.0607656 16.6423 0.00776052 13.0517C0.00267525 12.7072 1.38847e-07 12.3565 1.43099e-07 12C1.4735e-07 11.6435 0.00267527 11.2928 0.00776058 10.9483C0.0607658 7.35774 0.0872684 5.56245 1.357 3.62109C1.89838 2.79334 2.9369 1.77004 3.77255 1.24093C5.73244 6.83587e-08 7.85817 9.37078e-08 12.1096 1.44406e-07C16.2109 1.93313e-07 18.2616 2.17767e-07 20.2201 1.23858C21.0439 1.75951 22.1009 2.79947 22.6352 3.61462C23.9055 5.55276 23.9335 7.27753 23.9897 10.7271C23.9964 11.1408 24 11.5651 24 12C24 12.4349 23.9964 12.8592 23.9897 13.2729C23.9335 16.7225 23.9055 18.4472 22.6352 20.3854C22.1009 21.2005 21.0439 22.2405 20.2201 22.7614C18.2616 24 16.2109 24 12.1096 24Z" fill="#FFEFD7"/>
<path d="M17.5743 13.0622L18.6998 8.18716C18.7811 7.83518 18.5093 7.5 18.1426 7.5H8.79067L8.57243 6.44977C8.51805 6.18799 8.28405 6 8.0126 6H5.57143C5.25583 6 5 6.25184 5 6.5625V6.9375C5 7.24816 5.25583 7.5 5.57143 7.5H7.23531L8.90788 15.5493C8.50774 15.7758 8.2381 16.2005 8.2381 16.6875C8.2381 17.4124 8.83505 18 9.57143 18C10.3078 18 10.9048 17.4124 10.9048 16.6875C10.9048 16.3201 10.7513 15.9882 10.5042 15.75H15.4958C15.2487 15.9882 15.0952 16.3201 15.0952 16.6875C15.0952 17.4124 15.6922 18 16.4286 18C17.165 18 17.7619 17.4124 17.7619 16.6875C17.7619 16.1678 17.4551 15.7188 17.01 15.5061L17.1414 14.9372C17.2226 14.5852 16.9509 14.25 16.5842 14.25H10.1933L10.0374 13.5H17.0171C17.2839 13.5 17.5152 13.3183 17.5743 13.0622Z" fill="#FC9700"/>
</svg>
