<svg width="16" height="16" viewBox="0 0 16 16" fill="none" xmlns="http://www.w3.org/2000/svg">
<path fill-rule="evenodd" clip-rule="evenodd" d="M14.354 4.64602C14.4006 4.69247 14.4375 4.74765 14.4627 4.80839C14.4879 4.86914 14.5009 4.93426 14.5009 5.00002C14.5009 5.06579 14.4879 5.13091 14.4627 5.19166C14.4375 5.2524 14.4006 5.30758 14.354 5.35402L8.35402 11.354C8.30758 11.4006 8.2524 11.4375 8.19166 11.4627C8.13091 11.4879 8.06579 11.5009 8.00002 11.5009C7.93425 11.5009 7.86913 11.4879 7.80839 11.4627C7.74764 11.4375 7.69247 11.4006 7.64602 11.354L1.64602 5.35402C1.55214 5.26014 1.49939 5.1328 1.49939 5.00002C1.49939 4.86725 1.55214 4.73991 1.64602 4.64602C1.73991 4.55214 1.86725 4.49939 2.00002 4.49939C2.1328 4.49939 2.26014 4.55214 2.35402 4.64602L8.00002 10.293L13.646 4.64602C13.6925 4.59946 13.7476 4.56252 13.8084 4.53731C13.8691 4.5121 13.9343 4.49913 14 4.49913C14.0658 4.49913 14.1309 4.5121 14.1917 4.53731C14.2524 4.56252 14.3076 4.59946 14.354 4.64602Z" fill="#2C2C2C"/>
</svg>
