<svg width="24" height="24" viewBox="0 0 24 24" fill="none" xmlns="http://www.w3.org/2000/svg">
<path d="M12.1096 24C7.85817 24 5.73244 24 3.77255 22.7591C2.9369 22.23 1.89838 21.2067 1.357 20.3789C0.0872681 18.4375 0.0607656 16.6423 0.00776052 13.0517C0.00267525 12.7072 1.38847e-07 12.3565 1.43099e-07 12C1.4735e-07 11.6435 0.00267527 11.2928 0.00776058 10.9483C0.0607658 7.35774 0.0872684 5.56245 1.357 3.62109C1.89838 2.79334 2.9369 1.77004 3.77255 1.24093C5.73244 6.83587e-08 7.85817 9.37078e-08 12.1096 1.44406e-07C16.2109 1.93313e-07 18.2616 2.17767e-07 20.2201 1.23858C21.0439 1.75951 22.1009 2.79947 22.6352 3.61462C23.9055 5.55276 23.9335 7.27753 23.9897 10.7271C23.9964 11.1408 24 11.5651 24 12C24 12.4349 23.9964 12.8592 23.9897 13.2729C23.9335 16.7225 23.9055 18.4472 22.6352 20.3854C22.1009 21.2005 21.0439 22.2405 20.2201 22.7614C18.2616 24 16.2109 24 12.1096 24Z" fill="#FFFDCD"/>
<path d="M16.8 11.8C16.8 11.344 17.058 10.948 17.436 10.744C17.796 10.546 18 10.138 18 9.724V8.2C18 7.54 17.46 7 16.8 7H7.2C6.54 7 6.006 7.534 6.006 8.194V9.724C6.006 10.138 6.204 10.546 6.57 10.738C6.948 10.948 7.2 11.344 7.2 11.8C7.2 12.256 6.942 12.658 6.564 12.856C6.204 13.054 6 13.462 6 13.876V15.226C6 16.06 6.54 16.6 7.2 16.6H16.8C17.46 16.6 18 16.06 18 15.4V13.876C18 13.462 17.796 13.054 17.436 12.856C17.058 12.652 16.8 12.256 16.8 11.8ZM13.5 14.26L12 13.3L10.5 14.266C10.272 14.41 9.978 14.2 10.05 13.936L10.5 12.208L9.12 11.08C9.07327 11.0414 9.03923 10.9897 9.02232 10.9315C9.00541 10.8733 9.0064 10.8114 9.02518 10.7538C9.04395 10.6961 9.07963 10.6455 9.12758 10.6085C9.17552 10.5714 9.23351 10.5496 9.294 10.546L11.07 10.444L11.718 8.794C11.82 8.542 12.18 8.542 12.276 8.794L12.924 10.45L14.7 10.552C14.97 10.57 15.084 10.912 14.874 11.086L13.494 12.214L13.95 13.93C14.022 14.2 13.728 14.41 13.5 14.26Z" fill="#CFC706"/>
</svg>
