<svg width="24" height="24" viewBox="0 0 24 24" fill="none" xmlns="http://www.w3.org/2000/svg">
<path d="M12.1096 24C7.85817 24 5.73244 24 3.77255 22.7591C2.9369 22.23 1.89838 21.2067 1.357 20.3789C0.0872681 18.4375 0.0607656 16.6423 0.00776052 13.0517C0.00267525 12.7072 1.38847e-07 12.3565 1.43099e-07 12C1.4735e-07 11.6435 0.00267527 11.2928 0.00776058 10.9483C0.0607658 7.35774 0.0872684 5.56245 1.357 3.62109C1.89838 2.79334 2.9369 1.77004 3.77255 1.24093C5.73244 6.83587e-08 7.85817 9.37078e-08 12.1096 1.44406e-07C16.2109 1.93313e-07 18.2616 2.17767e-07 20.2201 1.23858C21.0439 1.75951 22.1009 2.79947 22.6352 3.61462C23.9055 5.55276 23.9335 7.27753 23.9897 10.7271C23.9964 11.1408 24 11.5651 24 12C24 12.4349 23.9964 12.8592 23.9897 13.2729C23.9335 16.7225 23.9055 18.4472 22.6352 20.3854C22.1009 21.2005 21.0439 22.2405 20.2201 22.7614C18.2616 24 16.2109 24 12.1096 24Z" fill="#DBFFF2"/>
<path fill-rule="evenodd" clip-rule="evenodd" d="M8.74999 15.9286C8.98679 15.9286 9.21389 15.8345 9.38134 15.6671C9.54878 15.4996 9.64285 15.2725 9.64285 15.0357C9.64285 14.7989 9.54878 14.5718 9.38134 14.4044C9.21389 14.2369 8.98679 14.1429 8.74999 14.1429C8.51319 14.1429 8.28609 14.2369 8.11865 14.4044C7.9512 14.5718 7.85713 14.7989 7.85713 15.0357C7.85713 15.2725 7.9512 15.4996 8.11865 15.6671C8.28609 15.8345 8.51319 15.9286 8.74999 15.9286ZM8.74999 17C9.27095 17 9.77058 16.793 10.139 16.4247C10.5073 16.0563 10.7143 15.5567 10.7143 15.0357C10.7143 14.5148 10.5073 14.0151 10.139 13.6468C9.77058 13.2784 9.27095 13.0714 8.74999 13.0714C8.22903 13.0714 7.72941 13.2784 7.36103 13.6468C6.99266 14.0151 6.78571 14.5148 6.78571 15.0357C6.78571 15.5567 6.99266 16.0563 7.36103 16.4247C7.72941 16.793 8.22903 17 8.74999 17ZM17.1428 15.9286C17.3796 15.9286 17.6068 15.8345 17.7742 15.6671C17.9416 15.4996 18.0357 15.2725 18.0357 15.0357C18.0357 14.7989 17.9416 14.5718 17.7742 14.4044C17.6068 14.2369 17.3796 14.1429 17.1428 14.1429C16.906 14.1429 16.6789 14.2369 16.5115 14.4044C16.3441 14.5718 16.25 14.7989 16.25 15.0357C16.25 15.2725 16.3441 15.4996 16.5115 15.6671C16.6789 15.8345 16.906 15.9286 17.1428 15.9286ZM17.1428 17C17.6638 17 18.1634 16.793 18.5318 16.4247C18.9002 16.0563 19.1071 15.5567 19.1071 15.0357C19.1071 14.5148 18.9002 14.0151 18.5318 13.6468C18.1634 13.2784 17.6638 13.0714 17.1428 13.0714C16.6219 13.0714 16.1223 13.2784 15.7539 13.6468C15.3855 14.0151 15.1786 14.5148 15.1786 15.0357C15.1786 15.5567 15.3855 16.0563 15.7539 16.4247C16.1223 16.793 16.6219 17 17.1428 17Z" fill="#02C5A2"/>
<path d="M15.485 15.3143C15.2907 15.3486 15.1021 15.2179 15.1035 15.0207C15.107 14.5614 15.2713 14.1179 15.5678 13.7672C15.8644 13.4165 16.2745 13.1808 16.7268 13.1011C17.1791 13.0214 17.645 13.1026 18.0436 13.3308C18.4422 13.559 18.7482 13.9196 18.9085 14.35C18.9775 14.5346 18.8446 14.7218 18.6503 14.7561L15.485 15.3143Z" fill="#02C5A2"/>
<path fill-rule="evenodd" clip-rule="evenodd" d="M17.9896 13.7186C17.7543 13.5538 17.4791 13.4551 17.1927 13.4327C16.9063 13.4104 16.6191 13.4652 16.361 13.5915C16.103 13.7178 15.8835 13.911 15.7255 14.151C15.5675 14.3909 15.4767 14.6688 15.4625 14.9557L18.5489 14.4114C18.4315 14.1324 18.2376 13.8923 17.9896 13.7186ZM16.6646 12.7489C17.1992 12.6547 17.75 12.7508 18.2211 13.0206C18.6922 13.2903 19.0538 13.7166 19.2432 14.2254C19.4061 14.6618 19.0796 15.0432 18.7125 15.1075L15.5471 15.6661C15.1803 15.7304 14.7432 15.4839 14.7464 15.0182C14.7504 14.4754 14.9444 13.9511 15.2949 13.5365C15.6453 13.1219 16.13 12.8432 16.6646 12.7489Z" fill="#02C5A2"/>
<path d="M6.78571 10.9286C6.78571 10.6444 6.89859 10.3719 7.09952 10.1709C7.30045 9.97001 7.57297 9.85713 7.85713 9.85713H11.0714C11.3556 9.85713 11.6281 9.97001 11.829 10.1709C12.03 10.3719 12.1428 10.6444 12.1428 10.9286V11.2857H6.78571V10.9286Z" fill="#02C5A2"/>
<path fill-rule="evenodd" clip-rule="evenodd" d="M12.0821 10.5714C12.1214 10.6832 12.1428 10.8036 12.1428 10.9286V11.2857H6.78571V10.9286C6.78547 10.7878 6.81302 10.6484 6.86679 10.5183C6.92055 10.3882 6.99946 10.27 7.099 10.1704C7.19853 10.0709 7.31674 9.99197 7.44684 9.93821C7.57694 9.88445 7.71637 9.8569 7.85714 9.85713H11.0714C11.5378 9.85713 11.935 10.1553 12.0821 10.5714Z" fill="#02C5A2"/>
<path d="M5 15.0714C5 13.375 6.61286 12 8.60214 12H11.4843C11.6507 12 11.7857 12.115 11.7857 12.2571V14.5714C11.7857 14.9264 11.4482 15.2143 11.0318 15.2143H5.1675C5.075 15.2143 5 15.15 5 15.0714Z" fill="#02C5A2"/>
<path fill-rule="evenodd" clip-rule="evenodd" d="M11.0714 12.7143H8.60214C7.17107 12.7143 6.10857 13.5293 5.80357 14.5H11.0318C11.0451 14.5001 11.0585 14.4985 11.0714 14.4954V12.7143ZM8.60214 12C6.61286 12 5 13.375 5 15.0714C5 15.15 5.075 15.2143 5.16786 15.2143H11.0318C11.4482 15.2143 11.7857 14.9264 11.7857 14.5714V12.2571C11.7857 12.115 11.6507 12 11.4843 12H8.60214ZM14.5732 10.0582L13.9286 15.2143H15.1786L16.0714 13.6682V10.2143H15.1786C14.9668 10.2146 14.7584 10.1609 14.5732 10.0582Z" fill="#02C5A2"/>
<path d="M13.9286 8.25C13.9286 7.91848 14.0603 7.60054 14.2947 7.36612C14.5291 7.1317 14.8471 7 15.1786 7H16.5661C16.6875 7 16.7857 7.09821 16.7857 7.21964V9.28036C16.7857 9.40179 16.6872 9.5 16.5661 9.5H15.1786C14.8471 9.5 14.5291 9.3683 14.2947 9.13388C14.0603 8.89946 13.9286 8.58152 13.9286 8.25Z" fill="#02C5A2"/>
<path fill-rule="evenodd" clip-rule="evenodd" d="M16.0714 7.71429H15.1786C15.0365 7.71429 14.9002 7.77073 14.7998 7.87119C14.6993 7.97166 14.6429 8.10792 14.6429 8.25C14.6429 8.39208 14.6993 8.52834 14.7998 8.62881C14.9002 8.72927 15.0365 8.78571 15.1786 8.78571H16.0714V7.71429ZM15.1786 7C14.8471 7 14.5291 7.1317 14.2947 7.36612C14.0603 7.60054 13.9286 7.91848 13.9286 8.25C13.9286 8.58152 14.0603 8.89946 14.2947 9.13388C14.5291 9.3683 14.8471 9.5 15.1786 9.5H16.5661C16.6875 9.5 16.7857 9.40143 16.7857 9.28036V7.21964C16.7857 7.16139 16.7626 7.10552 16.7214 7.06433C16.6802 7.02314 16.6243 7 16.5661 7H15.1786Z" fill="#02C5A2"/>
<path d="M12.6236 7.35713L14.3825 7.66642L14.2586 8.36999L12.5 8.0607L12.6236 7.35713ZM11.0714 12.7143H14.6428L14.0125 15.2143H11.0714V12.7143Z" fill="#02C5A2"/>
</svg>
