<svg width="24" height="24" viewBox="0 0 24 24" fill="none" xmlns="http://www.w3.org/2000/svg">
<path d="M12.1096 24C7.85817 24 5.73244 24 3.77255 22.7591C2.9369 22.23 1.89838 21.2067 1.357 20.3789C0.0872681 18.4375 0.0607656 16.6423 0.00776052 13.0517C0.00267525 12.7072 1.38847e-07 12.3565 1.43099e-07 12C1.4735e-07 11.6435 0.00267527 11.2928 0.00776058 10.9483C0.0607658 7.35774 0.0872684 5.56245 1.357 3.62109C1.89838 2.79334 2.9369 1.77004 3.77255 1.24093C5.73244 6.83587e-08 7.85817 9.37078e-08 12.1096 1.44406e-07C16.2109 1.93313e-07 18.2616 2.17767e-07 20.2201 1.23858C21.0439 1.75951 22.1009 2.79947 22.6352 3.61462C23.9055 5.55276 23.9335 7.27753 23.9897 10.7271C23.9964 11.1408 24 11.5651 24 12C24 12.4349 23.9964 12.8592 23.9897 13.2729C23.9335 16.7225 23.9055 18.4472 22.6352 20.3854C22.1009 21.2005 21.0439 22.2405 20.2201 22.7614C18.2616 24 16.2109 24 12.1096 24Z" fill="#F0F0F0"/>
<path d="M12.0002 11C11.8117 11 11.625 11.0371 11.4509 11.1093C11.2767 11.1814 11.1185 11.2871 10.9852 11.4204C10.852 11.5537 10.7462 11.7119 10.6741 11.886C10.602 12.0602 10.5648 12.2468 10.5648 12.4353C10.5648 12.6238 10.602 12.8104 10.6741 12.9846C10.7462 13.1587 10.852 13.317 10.9852 13.4502C11.1185 13.5835 11.2767 13.6892 11.4509 13.7614C11.625 13.8335 11.8117 13.8706 12.0002 13.8706C12.3808 13.8705 12.7459 13.7192 13.015 13.45C13.2841 13.1808 13.4352 12.8157 13.4352 12.435C13.4351 12.0543 13.2838 11.6893 13.0145 11.4202C12.7453 11.1511 12.3802 10.9999 11.9995 11H12.0002ZM7.43532 11C7.24683 11 7.06019 11.0371 6.88605 11.1093C6.7119 11.1814 6.55368 11.2871 6.42039 11.4204C6.28711 11.5537 6.18139 11.7119 6.10926 11.886C6.03713 12.0602 6 12.2468 6 12.4353C6 12.6238 6.03713 12.8104 6.10926 12.9846C6.18139 13.1587 6.28711 13.317 6.42039 13.4502C6.55368 13.5835 6.7119 13.6892 6.88605 13.7614C7.06019 13.8335 7.24683 13.8706 7.43532 13.8706C7.81599 13.8705 8.18103 13.7192 8.45015 13.45C8.71926 13.1808 8.8704 12.8157 8.87031 12.435C8.87022 12.0543 8.71892 11.6893 8.44968 11.4202C8.18045 11.1511 7.81534 10.9999 7.43467 11H7.43532ZM16.565 11C16.3765 11 16.1899 11.0371 16.0157 11.1093C15.8416 11.1814 15.6834 11.2871 15.5501 11.4204C15.4168 11.5537 15.3111 11.7119 15.2389 11.886C15.1668 12.0602 15.1297 12.2468 15.1297 12.4353C15.1297 12.6238 15.1668 12.8104 15.2389 12.9846C15.3111 13.1587 15.4168 13.317 15.5501 13.4502C15.6834 13.5835 15.8416 13.6892 16.0157 13.7614C16.1899 13.8335 16.3765 13.8706 16.565 13.8706C16.9457 13.8705 17.3107 13.7192 17.5798 13.45C17.8489 13.1808 18.0001 12.8157 18 12.435C17.9999 12.0543 17.8486 11.6893 17.5794 11.4202C17.3101 11.1511 16.945 10.9999 16.5644 11H16.565Z" fill="#989898"/>
</svg>
