<svg width="16" height="16" viewBox="0 0 16 16" fill="none" xmlns="http://www.w3.org/2000/svg">
<path fill-rule="evenodd" clip-rule="evenodd" d="M11.354 1.64599C11.3075 1.59943 11.2523 1.56249 11.1916 1.53728C11.1308 1.51207 11.0657 1.4991 11 1.4991C10.9342 1.4991 10.8691 1.51207 10.8083 1.53728C10.7476 1.56249 10.6924 1.59943 10.646 1.64599L4.64596 7.64599C4.5994 7.69244 4.56246 7.74761 4.53725 7.80836C4.51204 7.86911 4.49907 7.93423 4.49907 7.99999C4.49907 8.06576 4.51204 8.13088 4.53725 8.19163C4.56246 8.25237 4.5994 8.30755 4.64596 8.35399L10.646 14.354C10.7398 14.4479 10.8672 14.5006 11 14.5006C11.1327 14.5006 11.2601 14.4479 11.354 14.354C11.4478 14.2601 11.5006 14.1328 11.5006 14C11.5006 13.8672 11.4478 13.7399 11.354 13.646L5.70696 7.99999L11.354 2.35399C11.4005 2.30755 11.4375 2.25237 11.4627 2.19163C11.4879 2.13088 11.5009 2.06576 11.5009 1.99999C11.5009 1.93423 11.4879 1.86911 11.4627 1.80836C11.4375 1.74761 11.4005 1.69244 11.354 1.64599Z" fill="#2C2C2C"/>
</svg>
