<svg width="30" height="30" viewBox="0 0 30 30" fill="none" xmlns="http://www.w3.org/2000/svg">
<path d="M14.1353 30C7.97968 30 4.90187 30 2.572 27.73C0.24212 25.46 0.171449 22.7451 0.0301069 17.3152C0.0106645 16.5683 1.69382e-07 15.7959 1.78873e-07 15C1.88364e-07 14.2041 0.0106645 13.4317 0.030107 12.6848C0.171449 7.25494 0.24212 4.54004 2.572 2.27002C4.90187 5.84542e-08 7.97968 9.51567e-08 14.1353 1.68562e-07L16.1189 1.92216e-07C22.1044 2.63592e-07 25.0972 2.99281e-07 27.4267 2.26847C29.7563 4.53694 29.8263 7.16758 29.9661 12.4288C29.988 13.2497 30 14.1072 30 15C30 15.8928 29.988 16.7503 29.9661 17.5712C29.8263 22.8324 29.7563 25.4631 27.4267 27.7315C25.0972 30 22.1044 30 16.1189 30L14.1353 30Z" fill="#DCE2FF"/>
<path d="M20.1651 9C23.1343 9 25 11.1705 25 14.0638V21H21.3791V14.5532C21.3791 13.7872 21.1732 13.1986 20.7615 12.7872C20.3639 12.3617 19.8101 12.1489 19.1001 12.1489C18.3901 12.1489 17.8293 12.3617 17.4175 12.7872C17.0199 13.1986 16.8211 13.7872 16.8211 14.5532V21H13.2002V14.5532C13.2002 13.7872 12.9943 13.1986 12.5826 12.7872C12.185 12.3617 11.6312 12.1489 10.9212 12.1489C10.2112 12.1489 9.65036 12.3617 9.23858 12.7872C8.84099 13.1986 8.6422 13.7872 8.6422 14.5532V21H5.00003C5.00003 21 5 18.0213 5 14.0638C5 10.1064 8.68274 9 10.9212 9C12.9517 9 15.0879 9.29895 16.1608 11.2128C17.0175 9.85542 18.5597 9 20.1651 9Z" fill="#5C76FF"/>
</svg>
