<svg width="24" height="24" viewBox="0 0 24 24" fill="none" xmlns="http://www.w3.org/2000/svg">
<circle cx="12" cy="12" r="12" fill="#F0F0F0"/>
<path d="M10.5647 12.4351C10.5647 12.6236 10.6018 12.8103 10.674 12.9844C10.7461 13.1586 10.8518 13.3168 10.9851 13.4501C11.1184 13.5833 11.2766 13.6891 11.4507 13.7612C11.6249 13.8333 11.8115 13.8705 12 13.8705C12.1885 13.8705 12.3751 13.8333 12.5493 13.7612C12.7234 13.6891 12.8817 13.5833 13.0149 13.4501C13.1482 13.3168 13.2539 13.1586 13.3261 12.9844C13.3982 12.8103 13.4353 12.6236 13.4353 12.4351C13.4352 12.0545 13.2839 11.6894 13.0147 11.4203C12.7455 11.1512 12.3804 11.0001 11.9997 11.0001C11.619 11.0002 11.254 11.1515 10.9849 11.4208C10.7157 11.69 10.5646 12.0551 10.5647 12.4358V12.4351ZM10.5647 17C10.5647 17.1885 10.6018 17.3751 10.674 17.5493C10.7461 17.7234 10.8518 17.8816 10.9851 18.0149C11.1184 18.1482 11.2766 18.2539 11.4507 18.326C11.6249 18.3982 11.8115 18.4353 12 18.4353C12.1885 18.4353 12.3751 18.3982 12.5493 18.326C12.7234 18.2539 12.8817 18.1482 13.0149 18.0149C13.1482 17.8816 13.2539 17.7234 13.3261 17.5493C13.3982 17.3751 13.4353 17.1885 13.4353 17C13.4352 16.6193 13.2839 16.2543 13.0147 15.9852C12.7455 15.716 12.3804 15.5649 11.9997 15.565C11.619 15.5651 11.254 15.7164 10.9849 15.9856C10.7157 16.2549 10.5646 16.62 10.5647 17.0006V17ZM10.5647 7.87029C10.5647 8.05878 10.6018 8.24543 10.674 8.41957C10.7461 8.59371 10.8518 8.75194 10.9851 8.88522C11.1184 9.0185 11.2766 9.12422 11.4507 9.19636C11.6249 9.26849 11.8115 9.30561 12 9.30561C12.1885 9.30561 12.3751 9.26849 12.5493 9.19636C12.7234 9.12422 12.8817 9.0185 13.0149 8.88522C13.1482 8.75194 13.2539 8.59371 13.3261 8.41957C13.3982 8.24543 13.4353 8.05878 13.4353 7.87029C13.4352 7.48962 13.2839 7.12458 13.0147 6.85547C12.7455 6.58635 12.3804 6.43522 11.9997 6.4353C11.619 6.43539 11.254 6.58669 10.9849 6.85593C10.7157 7.12516 10.5646 7.49028 10.5647 7.87095V7.87029Z" fill="#989898"/>
</svg>
