<svg width="24" height="24" viewBox="0 0 24 24" fill="none" xmlns="http://www.w3.org/2000/svg">
<path d="M12.1096 24C7.85817 24 5.73244 24 3.77255 22.7591C2.9369 22.23 1.89838 21.2067 1.357 20.3789C0.0872681 18.4375 0.0607656 16.6423 0.00776052 13.0517C0.00267525 12.7072 1.38847e-07 12.3565 1.43099e-07 12C1.4735e-07 11.6435 0.00267527 11.2928 0.00776058 10.9483C0.0607658 7.35774 0.0872684 5.56245 1.357 3.62109C1.89838 2.79334 2.9369 1.77004 3.77255 1.24093C5.73244 6.83587e-08 7.85817 9.37078e-08 12.1096 1.44406e-07C16.2109 1.93313e-07 18.2616 2.17767e-07 20.2201 1.23858C21.0439 1.75951 22.1009 2.79947 22.6352 3.61462C23.9055 5.55276 23.9335 7.27753 23.9897 10.7271C23.9964 11.1408 24 11.5651 24 12C24 12.4349 23.9964 12.8592 23.9897 13.2729C23.9335 16.7225 23.9055 18.4472 22.6352 20.3854C22.1009 21.2005 21.0439 22.2405 20.2201 22.7614C18.2616 24 16.2109 24 12.1096 24Z" fill="#DCE2FF"/>
<path d="M15.3638 6.00042C15.1105 5.99597 14.8616 6.02752 14.626 6.08041C14.5566 6.09602 14.4921 6.12838 14.4381 6.17466C14.3841 6.22094 14.3422 6.27974 14.3161 6.34592C14.2901 6.4121 14.2806 6.48366 14.2885 6.55435C14.2964 6.62504 14.3215 6.69271 14.3616 6.75147C14.3625 6.75281 14.3638 6.75414 14.3638 6.75636C14.4661 6.91191 14.6527 6.98746 14.8349 6.94746C14.9949 6.90746 15.1638 6.88968 15.3327 6.88968C16.5948 6.88968 17.6169 7.94739 17.5503 9.22285C17.5226 9.75544 17.3041 10.2603 16.9348 10.645L16.9525 10.6787C16.6828 10.3291 16.3364 10.046 15.9399 9.85136C15.5435 9.65673 15.1077 9.55574 14.666 9.55616C14.2305 9.55616 13.795 9.65393 13.4039 9.84503L11.2841 10.8761C11.1019 10.9649 10.893 10.8316 10.893 10.6316V10.0406C10.893 9.48505 10.6841 8.97842 10.3419 8.59178L8.54204 6.58748C8.43094 6.46305 8.22206 6.5386 8.22206 6.70748V7.91183C7.39101 8.10293 6.73772 8.94287 6.56885 9.80948C6.54663 9.92058 6.44886 10.0006 6.33775 10.0006C6.24818 10.0006 6.16227 10.0362 6.09893 10.0995C6.03558 10.1628 6 10.2487 6 10.3383V10.4361C6 11.4227 6.79994 12.2226 7.78654 12.2226V12.9293C7.78643 13.416 7.96747 13.8854 8.29443 14.2461C8.62138 14.6067 9.07084 14.8328 9.5553 14.8802V17.8356C9.5553 17.9245 9.63085 18 9.72418 18H10.7241C10.8174 18 10.893 17.9245 10.893 17.8311V15.2184L11.5152 17.8311C11.5418 17.9289 11.6307 18 11.7329 18H12.6795C12.7862 18 12.8662 17.8978 12.8395 17.8L12.1476 14.8891H13.9314L13.2395 17.8C13.2128 17.8978 13.2928 18 13.3995 18H14.3461C14.4483 18 14.5372 17.9289 14.5638 17.8311L15.0838 15.6491L15.506 16.0712C15.5993 16.1646 15.626 16.3023 15.5726 16.4223L14.9949 17.7689C14.9416 17.8756 15.0216 18 15.1416 18H16.1104C16.177 18 16.2393 17.96 16.2615 17.8978L17.3814 15.2802C17.497 15.0224 17.5547 14.7425 17.5547 14.4625V12.4448C17.5547 12.0964 17.493 11.7627 17.3801 11.4534C17.7199 11.1566 17.991 10.7894 18.1747 10.3772C18.3583 9.96513 18.4501 9.51799 18.4436 9.06686C18.4213 7.38698 17.0437 6.01819 15.3638 6.00042ZM7.69455 9.88769C7.69455 9.72815 7.82342 9.6046 7.97764 9.6046C8.13718 9.6046 8.26073 9.73348 8.26073 9.88769V10.3099C8.26015 10.3848 8.23013 10.4565 8.17717 10.5094C8.1242 10.5624 8.05254 10.5924 7.97764 10.593C7.94043 10.5931 7.90356 10.5858 7.86916 10.5717C7.83476 10.5575 7.80351 10.5366 7.7772 10.5103C7.75089 10.484 7.73004 10.4528 7.71586 10.4184C7.70167 10.384 7.69443 10.3471 7.69455 10.3099V9.88769Z" fill="#5C76FF"/>
</svg>
