<svg width="24" height="24" viewBox="0 0 24 24" fill="none" xmlns="http://www.w3.org/2000/svg">
<path d="M12.1096 24C7.85817 24 5.73244 24 3.77255 22.7591C2.9369 22.23 1.89838 21.2067 1.357 20.3789C0.0872681 18.4375 0.0607656 16.6423 0.00776052 13.0517C0.00267525 12.7072 1.38847e-07 12.3565 1.43099e-07 12C1.4735e-07 11.6435 0.00267527 11.2928 0.00776058 10.9483C0.0607658 7.35774 0.0872684 5.56245 1.357 3.62109C1.89838 2.79334 2.9369 1.77004 3.77255 1.24093C5.73244 6.83587e-08 7.85817 9.37078e-08 12.1096 1.44406e-07C16.2109 1.93313e-07 18.2616 2.17767e-07 20.2201 1.23858C21.0439 1.75951 22.1009 2.79947 22.6352 3.61462C23.9055 5.55276 23.9335 7.27753 23.9897 10.7271C23.9964 11.1408 24 11.5651 24 12C24 12.4349 23.9964 12.8592 23.9897 13.2729C23.9335 16.7225 23.9055 18.4472 22.6352 20.3854C22.1009 21.2005 21.0439 22.2405 20.2201 22.7614C18.2616 24 16.2109 24 12.1096 24Z" fill="#E3FFE4"/>
<path fill-rule="evenodd" clip-rule="evenodd" d="M11.7224 6C10.2166 6 8.84449 6.49737 8.03275 6.90374C7.95941 6.94041 7.89107 6.97641 7.8274 7.01108C7.70139 7.07976 7.59405 7.14376 7.50871 7.2001L8.43212 8.55955L8.86682 8.73256C10.5656 9.58963 12.8438 9.58963 14.543 8.73256L15.0363 8.47654L15.9097 7.2001C15.7288 7.08209 15.5406 6.97554 15.3464 6.88107C14.539 6.47904 13.1999 6 11.7224 6ZM9.57455 7.53879C9.24756 7.47761 8.9246 7.39656 8.60747 7.29611C9.36786 6.95841 10.5013 6.60005 11.7221 6.60005C12.5678 6.60005 13.3675 6.77206 14.0289 6.99008C13.2539 7.09909 12.4268 7.28411 11.6387 7.51179C11.0187 7.69114 10.2939 7.67181 9.57455 7.53879ZM14.895 9.22694L14.8133 9.26827C12.9442 10.211 10.4653 10.211 8.59613 9.26827L8.51879 9.22894C5.71123 12.3095 3.56771 18 11.7224 18C19.8764 18 17.6806 12.2032 14.895 9.22694ZM11.3757 12.0005C11.1989 12.0005 11.0293 12.0707 10.9043 12.1958C10.7792 12.3208 10.709 12.4904 10.709 12.6672C10.709 12.844 10.7792 13.0136 10.9043 13.1387C11.0293 13.2637 11.1989 13.3339 11.3757 13.3339V12.0005ZM12.0424 11.3338V11.0004H11.3757V11.3338C11.022 11.3338 10.6829 11.4743 10.4328 11.7243C10.1827 11.9744 10.0423 12.3136 10.0423 12.6672C10.0423 13.0209 10.1827 13.36 10.4328 13.6101C10.6829 13.8602 11.022 14.0007 11.3757 14.0007V15.3341C11.2378 15.3341 11.1033 15.2914 10.9907 15.2118C10.8781 15.1323 10.793 15.0197 10.747 14.8897C10.7175 14.8064 10.6562 14.7381 10.5764 14.7C10.4966 14.6618 10.405 14.6569 10.3216 14.6864C10.2382 14.7158 10.17 14.7772 10.1318 14.857C10.0937 14.9367 10.0888 15.0284 10.1183 15.1118C10.2102 15.3718 10.3805 15.5969 10.6057 15.7561C10.8309 15.9153 11.0999 16.0008 11.3757 16.0008V16.3342H12.0424V16.0008C12.3961 16.0008 12.7352 15.8603 12.9853 15.6103C13.2354 15.3602 13.3759 15.021 13.3759 14.6674C13.3759 14.3137 13.2354 13.9746 12.9853 13.7245C12.7352 13.4744 12.3961 13.3339 12.0424 13.3339V12.0005C12.3324 12.0005 12.5795 12.1855 12.6715 12.4449C12.6851 12.4873 12.7071 12.5266 12.7362 12.5603C12.7653 12.5941 12.8009 12.6217 12.8408 12.6415C12.8808 12.6613 12.9243 12.6729 12.9688 12.6755C13.0133 12.6782 13.0578 12.6719 13.0999 12.6571C13.1419 12.6422 13.1805 12.6191 13.2135 12.5891C13.2464 12.559 13.273 12.5227 13.2916 12.4822C13.3103 12.4417 13.3206 12.3979 13.322 12.3534C13.3234 12.3088 13.3159 12.2644 13.2999 12.2229C13.2079 11.9628 13.0376 11.7377 12.8124 11.5785C12.5872 11.4193 12.3182 11.3338 12.0424 11.3338ZM12.0424 14.0007V15.3341C12.2192 15.3341 12.3888 15.2639 12.5139 15.1388C12.6389 15.0138 12.7091 14.8442 12.7091 14.6674C12.7091 14.4906 12.6389 14.321 12.5139 14.1959C12.3888 14.0709 12.2192 14.0007 12.0424 14.0007Z" fill="#09BF10"/>
</svg>
