<svg width="24" height="24" viewBox="0 0 24 24" fill="none" xmlns="http://www.w3.org/2000/svg">
<path d="M12.1096 24C7.85817 24 5.73244 24 3.77255 22.7591C2.9369 22.23 1.89838 21.2067 1.357 20.3789C0.0872681 18.4375 0.0607656 16.6423 0.00776052 13.0517C0.00267525 12.7072 1.38847e-07 12.3565 1.43099e-07 12C1.4735e-07 11.6435 0.00267527 11.2928 0.00776058 10.9483C0.0607658 7.35774 0.0872684 5.56245 1.357 3.62109C1.89838 2.79334 2.9369 1.77004 3.77255 1.24093C5.73244 6.83587e-08 7.85817 9.37078e-08 12.1096 1.44406e-07C16.2109 1.93313e-07 18.2616 2.17767e-07 20.2201 1.23858C21.0439 1.75951 22.1009 2.79947 22.6352 3.61462C23.9055 5.55276 23.9335 7.27753 23.9897 10.7271C23.9964 11.1408 24 11.5651 24 12C24 12.4349 23.9964 12.8592 23.9897 13.2729C23.9335 16.7225 23.9055 18.4472 22.6352 20.3854C22.1009 21.2005 21.0439 22.2405 20.2201 22.7614C18.2616 24 16.2109 24 12.1096 24Z" fill="#F0F0F0"/>
<path fill-rule="evenodd" clip-rule="evenodd" d="M6 8.6C6 8.26863 6.26863 8 6.6 8H17.4C17.7314 8 18 8.26863 18 8.6C18 8.93137 17.7314 9.2 17.4 9.2H6.6C6.26863 9.2 6 8.93137 6 8.6ZM6 12.2C6 11.8686 6.26863 11.6 6.6 11.6H12.6C12.9314 11.6 13.2 11.8686 13.2 12.2C13.2 12.5314 12.9314 12.8 12.6 12.8H6.6C6.26863 12.8 6 12.5314 6 12.2ZM6 15.8C6 15.4686 6.26863 15.2 6.6 15.2H15.6C15.9314 15.2 16.2 15.4686 16.2 15.8C16.2 16.1314 15.9314 16.4 15.6 16.4H6.6C6.26863 16.4 6 16.1314 6 15.8Z" fill="#989898"/>
</svg>
