<svg width="24" height="24" viewBox="0 0 24 24" fill="none" xmlns="http://www.w3.org/2000/svg">
<path d="M12.1096 24C7.85817 24 5.73244 24 3.77255 22.7591C2.9369 22.23 1.89838 21.2067 1.357 20.3789C0.0872681 18.4375 0.0607656 16.6423 0.00776052 13.0517C0.00267525 12.7072 1.38847e-07 12.3565 1.43099e-07 12C1.4735e-07 11.6435 0.00267527 11.2928 0.00776058 10.9483C0.0607658 7.35774 0.0872684 5.56245 1.357 3.62109C1.89838 2.79334 2.9369 1.77004 3.77255 1.24093C5.73244 6.83587e-08 7.85817 9.37078e-08 12.1096 1.44406e-07C16.2109 1.93313e-07 18.2616 2.17767e-07 20.2201 1.23858C21.0439 1.75951 22.1009 2.79947 22.6352 3.61462C23.9055 5.55276 23.9335 7.27753 23.9897 10.7271C23.9964 11.1408 24 11.5651 24 12C24 12.4349 23.9964 12.8592 23.9897 13.2729C23.9335 16.7225 23.9055 18.4472 22.6352 20.3854C22.1009 21.2005 21.0439 22.2405 20.2201 22.7614C18.2616 24 16.2109 24 12.1096 24Z" fill="#F6E3FF"/>
<path fill-rule="evenodd" clip-rule="evenodd" d="M8.33331 6.66667H9.66665V7.33334C9.66665 7.42174 9.70176 7.50653 9.76428 7.56904C9.82679 7.63155 9.91157 7.66667 9.99998 7.66667C10.0884 7.66667 10.1732 7.63155 10.2357 7.56904C10.2982 7.50653 10.3333 7.42174 10.3333 7.33334V6.66667H13V7.33334C13 7.42174 13.0351 7.50653 13.0976 7.56904C13.1601 7.63155 13.2449 7.66667 13.3333 7.66667C13.4217 7.66667 13.5065 7.63155 13.569 7.56904C13.6315 7.50653 13.6666 7.42174 13.6666 7.33334V6.66667H14C14.2652 6.66667 14.5195 6.77203 14.7071 6.95956C14.8946 7.1471 15 7.40146 15 7.66667V15.6667C15 15.9319 14.8946 16.1862 14.7071 16.3738C14.5195 16.5613 14.2652 16.6667 14 16.6667H8.33331C8.0681 16.6667 7.81374 16.5613 7.62621 16.3738C7.43867 16.1862 7.33331 15.9319 7.33331 15.6667V7.66667C7.33331 7.40146 7.43867 7.1471 7.62621 6.95956C7.81374 6.77203 8.0681 6.66667 8.33331 6.66667ZM8.99998 10C8.91157 10 8.82679 10.0351 8.76428 10.0976C8.70177 10.1601 8.66665 10.2449 8.66665 10.3333C8.66665 10.4217 8.70177 10.5065 8.76428 10.569C8.82679 10.6316 8.91157 10.6667 8.99998 10.6667H13.3333C13.4217 10.6667 13.5065 10.6316 13.569 10.569C13.6315 10.5065 13.6666 10.4217 13.6666 10.3333C13.6666 10.2449 13.6315 10.1601 13.569 10.0976C13.5065 10.0351 13.4217 10 13.3333 10H8.99998ZM8.66665 12C8.66665 11.9116 8.70177 11.8268 8.76428 11.7643C8.82679 11.7018 8.91157 11.6667 8.99998 11.6667H11.3333C11.4217 11.6667 11.5065 11.7018 11.569 11.7643C11.6315 11.8268 11.6666 11.9116 11.6666 12C11.6666 12.0884 11.6315 12.1732 11.569 12.2357C11.5065 12.2982 11.4217 12.3333 11.3333 12.3333H8.99998C8.91157 12.3333 8.82679 12.2982 8.76428 12.2357C8.70177 12.1732 8.66665 12.0884 8.66665 12ZM8.99998 13.3333C8.91157 13.3333 8.82679 13.3685 8.76428 13.431C8.70177 13.4935 8.66665 13.5783 8.66665 13.6667C8.66665 13.7551 8.70177 13.8399 8.76428 13.9024C8.82679 13.9649 8.91157 14 8.99998 14H12.6666C12.7551 14 12.8398 13.9649 12.9023 13.9024C12.9649 13.8399 13 13.7551 13 13.6667C13 13.5783 12.9649 13.4935 12.9023 13.431C12.8398 13.3685 12.7551 13.3333 12.6666 13.3333H8.99998Z" fill="#CD69FC"/>
<path fill-rule="evenodd" clip-rule="evenodd" d="M6.66667 7.33333V15.6667C6.66667 16.1087 6.84226 16.5326 7.15482 16.8452C7.46738 17.1577 7.89131 17.3333 8.33333 17.3333H14V18H8.33333C7.71449 18 7.121 17.7542 6.68342 17.3166C6.24583 16.879 6 16.2855 6 15.6667V7.33333H6.66667ZM17 7.33333C16.7348 7.33333 16.4804 7.43869 16.2929 7.62623C16.1054 7.81376 16 8.06812 16 8.33333V9.33333H18V8.33333C18 8.06812 17.8946 7.81376 17.7071 7.62623C17.5196 7.43869 17.2652 7.33333 17 7.33333ZM18 10H16V15L17 16.3333L18 15V10ZM12.6667 6C12.7551 6 12.8399 6.03512 12.9024 6.09763C12.9649 6.16014 13 6.24493 13 6.33333V7.66667C13 7.75507 12.9649 7.83986 12.9024 7.90237C12.8399 7.96488 12.7551 8 12.6667 8C12.5783 8 12.4935 7.96488 12.431 7.90237C12.3685 7.83986 12.3333 7.75507 12.3333 7.66667V6.33333C12.3333 6.24493 12.3685 6.16014 12.431 6.09763C12.4935 6.03512 12.5783 6 12.6667 6ZM9.33333 6C9.42174 6 9.50652 6.03512 9.56904 6.09763C9.63155 6.16014 9.66667 6.24493 9.66667 6.33333V7.66667C9.66667 7.75507 9.63155 7.83986 9.56904 7.90237C9.50652 7.96488 9.42174 8 9.33333 8C9.24493 8 9.16014 7.96488 9.09763 7.90237C9.03512 7.83986 9 7.75507 9 7.66667V6.33333C9 6.24493 9.03512 6.16014 9.09763 6.09763C9.16014 6.03512 9.24493 6 9.33333 6Z" fill="#CD69FC"/>
</svg>
