<svg width="16" height="16" viewBox="0 0 16 16" fill="none" xmlns="http://www.w3.org/2000/svg">
<path fill-rule="evenodd" clip-rule="evenodd" d="M14.3538 11.3539C14.4004 11.3074 14.4373 11.2522 14.4626 11.1915C14.4878 11.1308 14.5007 11.0656 14.5007 10.9999C14.5007 10.9341 14.4878 10.869 14.4626 10.8082C14.4373 10.7475 14.4004 10.6923 14.3538 10.6459L8.35384 4.64587C8.30739 4.59931 8.25222 4.56236 8.19147 4.53716C8.13073 4.51195 8.06561 4.49898 7.99984 4.49898C7.93407 4.49898 7.86895 4.51195 7.80821 4.53716C7.74746 4.56236 7.69228 4.59931 7.64584 4.64587L1.64584 10.6459C1.55195 10.7398 1.49921 10.8671 1.49921 10.9999C1.49921 11.1326 1.55195 11.26 1.64584 11.3539C1.73973 11.4478 1.86706 11.5005 1.99984 11.5005C2.13261 11.5005 2.25995 11.4478 2.35384 11.3539L7.99984 5.70687L13.6458 11.3539C13.6923 11.4004 13.7475 11.4374 13.8082 11.4626C13.869 11.4878 13.9341 11.5008 13.9998 11.5008C14.0656 11.5008 14.1307 11.4878 14.1915 11.4626C14.2522 11.4374 14.3074 11.4004 14.3538 11.3539Z" fill="#2C2C2C"/>
</svg>
