<svg width="24" height="24" viewBox="0 0 24 24" fill="none" xmlns="http://www.w3.org/2000/svg">
<path d="M5.29372 5.29372C5.38659 5.20062 5.49692 5.12675 5.61839 5.07635C5.73985 5.02594 5.87006 5 6.00157 5C6.13307 5 6.26329 5.02594 6.38475 5.07635C6.50622 5.12675 6.61654 5.20062 6.70941 5.29372L12.0003 10.5866L17.2911 5.29372C17.3841 5.20077 17.4944 5.12703 17.6159 5.07672C17.7373 5.02642 17.8675 5.00052 17.999 5.00052C18.1304 5.00052 18.2606 5.02642 18.382 5.07672C18.5035 5.12703 18.6138 5.20077 18.7068 5.29372C18.7998 5.38668 18.8735 5.49703 18.9238 5.61849C18.9741 5.73994 19 5.87011 19 6.00157C19 6.13303 18.9741 6.2632 18.9238 6.38465C18.8735 6.50611 18.7998 6.61646 18.7068 6.70941L13.414 12.0003L18.7068 17.2911C18.7998 17.3841 18.8735 17.4944 18.9238 17.6159C18.9741 17.7373 19 17.8675 19 17.999C19 18.1304 18.9741 18.2606 18.9238 18.382C18.8735 18.5035 18.7998 18.6138 18.7068 18.7068C18.6138 18.7998 18.5035 18.8735 18.382 18.9238C18.2606 18.9741 18.1304 19 17.999 19C17.8675 19 17.7373 18.9741 17.6159 18.9238C17.4944 18.8735 17.3841 18.7998 17.2911 18.7068L12.0003 13.414L6.70941 18.7068C6.61646 18.7998 6.50611 18.8735 6.38465 18.9238C6.2632 18.9741 6.13303 19 6.00157 19C5.87011 19 5.73994 18.9741 5.61849 18.9238C5.49703 18.8735 5.38668 18.7998 5.29372 18.7068C5.20077 18.6138 5.12703 18.5035 5.07672 18.382C5.02642 18.2606 5.00052 18.1304 5.00052 17.999C5.00052 17.8675 5.02642 17.7373 5.07672 17.6159C5.12703 17.4944 5.20077 17.3841 5.29372 17.2911L10.5866 12.0003L5.29372 6.70941C5.20062 6.61654 5.12675 6.50622 5.07635 6.38475C5.02594 6.26329 5 6.13307 5 6.00157C5 5.87006 5.02594 5.73985 5.07635 5.61839C5.12675 5.49692 5.20062 5.38659 5.29372 5.29372Z" fill="black"/>
</svg>
