<svg width="127" height="19" viewBox="0 0 127 19" fill="none" xmlns="http://www.w3.org/2000/svg">
<path d="M22.7841 0.0639992C27.245 0.0639992 30.0481 3.32846 30.0481 7.68V18.112H24.6081V8.416C24.6081 7.264 24.2987 6.37867 23.6801 5.76C23.0827 5.12 22.2507 4.8 21.1841 4.8C20.1174 4.8 19.2747 5.12 18.6561 5.76C18.0587 6.37867 17.7601 7.264 17.7601 8.416V18.112H12.3201V8.416C12.3201 7.264 12.0107 6.37867 11.3921 5.76C10.7947 5.12 9.96272 4.8 8.89605 4.8C7.82939 4.8 6.98672 5.12 6.36805 5.76C5.77072 6.37867 5.47205 7.264 5.47205 8.416V18.112H5.14984e-05C5.14984e-05 18.112 0 13.632 0 7.68C0 1.728 5.53296 0.0639992 8.89605 0.0639992C11.9467 0.0639992 15.1562 0.513613 16.7681 3.392C18.055 1.35056 20.3722 0.0639992 22.7841 0.0639992Z" fill="#5C76FF"/>
<path d="M42.003 18.368C40.2537 18.368 38.675 17.9947 37.267 17.248C35.8804 16.5013 34.7817 15.4347 33.9711 14.048C33.1817 12.6613 32.787 11.04 32.787 9.184C32.787 7.34933 33.1924 5.73867 34.003 4.352C34.8137 2.944 35.923 1.86667 37.331 1.12C38.739 0.373332 40.3177 0 42.0671 0C43.8164 0 45.3951 0.373332 46.8031 1.12C48.2111 1.86667 49.3204 2.944 50.1311 4.352C50.9417 5.73867 51.347 7.34933 51.347 9.184C51.347 11.0187 50.931 12.64 50.099 14.048C49.2884 15.4347 48.1684 16.5013 46.739 17.248C45.331 17.9947 43.7524 18.368 42.003 18.368ZM42.003 13.632C43.0484 13.632 43.9337 13.248 44.659 12.48C45.4057 11.712 45.779 10.6133 45.779 9.184C45.779 7.75467 45.4164 6.656 44.691 5.888C43.987 5.12 43.1124 4.736 42.0671 4.736C41.0004 4.736 40.115 5.12 39.411 5.888C38.7071 6.63467 38.355 7.73333 38.355 9.184C38.355 10.6133 38.6964 11.712 39.379 12.48C40.083 13.248 40.9577 13.632 42.003 13.632Z" fill="#5C76FF"/>
<path d="M96.253 18.368C94.5037 18.368 92.925 17.9947 91.517 17.248C90.1304 16.5013 89.0317 15.4347 88.221 14.048C87.4317 12.6613 87.037 11.04 87.037 9.184C87.037 7.34933 87.4424 5.73867 88.253 4.352C89.0637 2.944 90.173 1.86667 91.581 1.12C92.989 0.373332 94.5677 0 96.317 0C98.0664 0 99.6451 0.373332 101.053 1.12C102.461 1.86667 103.57 2.944 104.381 4.352C105.192 5.73867 105.597 7.34933 105.597 9.184C105.597 11.0187 105.181 12.64 104.349 14.048C103.538 15.4347 102.418 16.5013 100.989 17.248C99.581 17.9947 98.0024 18.368 96.253 18.368ZM96.253 13.632C97.2984 13.632 98.1837 13.248 98.909 12.48C99.6557 11.712 100.029 10.6133 100.029 9.184C100.029 7.75467 99.6664 6.656 98.941 5.888C98.237 5.12 97.3624 4.736 96.317 4.736C95.2504 4.736 94.3651 5.12 93.661 5.888C92.957 6.63467 92.605 7.73333 92.605 9.184C92.605 10.6133 92.9464 11.712 93.629 12.48C94.333 13.248 95.2077 13.632 96.253 13.632Z" fill="#5C76FF"/>
<path d="M117.396 0.0639992C121.759 0.0639992 126.26 3.54579 126.26 7.68V18.112H120.82V8.416C120.82 7.22133 120.511 6.29333 119.892 5.632C119.273 4.97067 118.441 4.64 117.396 4.64C116.351 4.64 115.519 4.97067 114.9 5.632C114.281 6.29333 113.972 7.22133 113.972 8.416V18.112H108.5C108.5 18.112 108.5 13.048 108.5 7.68C108.5 2.99804 113.223 0.0639992 117.396 0.0639992Z" fill="#5C76FF"/>
<path d="M77.034 0.0640926C81.495 0.0640926 84.298 3.32855 84.298 7.68009V18.1121H78.858V8.41609C78.858 7.26409 78.5487 6.37876 77.93 5.76009C77.3327 5.12009 76.5007 4.80009 75.434 4.80009C74.3674 4.80009 73.5247 5.12009 72.906 5.76009C72.3087 6.37876 72.01 7.26409 72.01 8.41609V18.1121H66.57V8.41609C66.57 7.26409 66.2607 6.37876 65.642 5.76009C65.0447 5.12009 64.2127 4.80009 63.146 4.80009C62.0794 4.80009 61.2367 5.12009 60.618 5.76009C60.0207 6.37876 59.722 7.26409 59.722 8.41609V18.1121H54.25C54.25 18.1121 54.25 13.6321 54.25 7.68009C54.25 1.72809 59.7829 0.0640926 63.146 0.0640926C66.1967 0.0640926 69.4062 0.513706 71.018 3.39209C72.305 1.35065 74.6222 0.0640926 77.034 0.0640926Z" fill="#5C76FF"/>
</svg>
