<svg width="25" height="29" viewBox="0 0 25 29" fill="none" xmlns="http://www.w3.org/2000/svg">
<path fill-rule="evenodd" clip-rule="evenodd" d="M12.5 0C13.2671 0 13.8889 0.698 13.8889 1.55903V12.4722H23.6111C24.3782 12.4722 25 13.1702 25 14.0313C25 14.8923 24.3782 15.5903 23.6111 15.5903H13.8889V26.5035C13.8889 27.3645 13.2671 28.0625 12.5 28.0625C11.7329 28.0625 11.1111 27.3645 11.1111 26.5035V15.5903H1.38889C0.621827 15.5903 0 14.8923 0 14.0313C0 13.1702 0.621827 12.4722 1.38889 12.4722H11.1111V1.55903C11.1111 0.698 11.7329 0 12.5 0Z" fill="#5C76FF"/>
</svg>
