<svg width="24" height="24" viewBox="0 0 24 24" fill="none" xmlns="http://www.w3.org/2000/svg">
<path d="M12.1096 24C7.85817 24 5.73244 24 3.77255 22.7591C2.9369 22.23 1.89838 21.2067 1.357 20.3789C0.0872681 18.4375 0.0607656 16.6423 0.00776052 13.0517C0.00267525 12.7072 1.38847e-07 12.3565 1.43099e-07 12C1.4735e-07 11.6435 0.00267527 11.2928 0.00776058 10.9483C0.0607658 7.35774 0.0872684 5.56245 1.357 3.62109C1.89838 2.79334 2.9369 1.77004 3.77255 1.24093C5.73244 6.83587e-08 7.85817 9.37078e-08 12.1096 1.44406e-07C16.2109 1.93313e-07 18.2616 2.17767e-07 20.2201 1.23858C21.0439 1.75951 22.1009 2.79947 22.6352 3.61462C23.9055 5.55276 23.9335 7.27753 23.9897 10.7271C23.9964 11.1408 24 11.5651 24 12C24 12.4349 23.9964 12.8592 23.9897 13.2729C23.9335 16.7225 23.9055 18.4472 22.6352 20.3854C22.1009 21.2005 21.0439 22.2405 20.2201 22.7614C18.2616 24 16.2109 24 12.1096 24Z" fill="#DCE2FF"/>
<path fill-rule="evenodd" clip-rule="evenodd" d="M16.3333 18L15.6667 17.3333L15 18L14.3333 17.3333L13.6667 18L13 17.3333L12.3333 18L11.6667 17.3333L11 18L10.3333 17.3333L9.66667 18L9 17.3333L8.33333 18L7.66667 17.3333L7 18V6L7.66667 6.66667L8.31933 6L9 6.66667L9.68067 6L10.3333 6.66667L11.014 6L11.6667 6.66667L12.361 6L13 6.66667L13.7083 6L14.3333 6.66667L14.986 6L15.6667 6.66667L16.3333 6V18ZM8.66667 11.6667C8.48333 11.6667 8.33333 11.5167 8.33333 11.3333C8.33333 11.15 8.48333 11 8.66667 11H12C12.1833 11 12.3333 11.15 12.3333 11.3333C12.3333 11.5167 12.1833 11.6667 12 11.6667H8.66667ZM14.6667 11.6667H13.3333C13.15 11.6667 13 11.5167 13 11.3333C13 11.15 13.15 11 13.3333 11H14.6667C14.85 11 15 11.15 15 11.3333C15 11.5167 14.85 11.6667 14.6667 11.6667ZM8.66667 13C8.48333 13 8.33333 12.85 8.33333 12.6667C8.33333 12.4833 8.48333 12.3333 8.66667 12.3333H12C12.1833 12.3333 12.3333 12.4833 12.3333 12.6667C12.3333 12.85 12.1833 13 12 13H8.66667ZM14.6667 13H13.3333C13.15 13 13 12.85 13 12.6667C13 12.4833 13.15 12.3333 13.3333 12.3333H14.6667C14.85 12.3333 15 12.4833 15 12.6667C15 12.85 14.85 13 14.6667 13ZM8.66667 15C8.48333 15 8.33333 14.85 8.33333 14.6667C8.33333 14.4833 8.48333 14.3333 8.66667 14.3333H14.6667C14.85 14.3333 15 14.4833 15 14.6667C15 14.85 14.85 15 14.6667 15H8.66667ZM14.6667 16.3333H13.3333C13.15 16.3333 13 16.1833 13 16C13 15.8167 13.15 15.6667 13.3333 15.6667H14.6667C14.85 15.6667 15 15.8167 15 16C15 16.1833 14.85 16.3333 14.6667 16.3333ZM13 8.66667C13 9.40305 12.403 10 11.6667 10C10.9303 10 10.3333 9.40305 10.3333 8.66667C10.3333 7.93029 10.9303 7.33333 11.6667 7.33333C12.403 7.33333 13 7.93029 13 8.66667Z" fill="#5C76FF"/>
</svg>
