<svg width="24" height="24" viewBox="0 0 24 24" fill="none" xmlns="http://www.w3.org/2000/svg">
<path d="M12.1096 24C7.85817 24 5.73244 24 3.77255 22.7591C2.9369 22.23 1.89838 21.2067 1.357 20.3789C0.0872681 18.4375 0.0607656 16.6423 0.00776052 13.0517C0.00267525 12.7072 1.38847e-07 12.3565 1.43099e-07 12C1.4735e-07 11.6435 0.00267527 11.2928 0.00776058 10.9483C0.0607658 7.35774 0.0872684 5.56245 1.357 3.62109C1.89838 2.79334 2.9369 1.77004 3.77255 1.24093C5.73244 6.83587e-08 7.85817 9.37078e-08 12.1096 1.44406e-07C16.2109 1.93313e-07 18.2616 2.17767e-07 20.2201 1.23858C21.0439 1.75951 22.1009 2.79947 22.6352 3.61462C23.9055 5.55276 23.9335 7.27753 23.9897 10.7271C23.9964 11.1408 24 11.5651 24 12C24 12.4349 23.9964 12.8592 23.9897 13.2729C23.9335 16.7225 23.9055 18.4472 22.6352 20.3854C22.1009 21.2005 21.0439 22.2405 20.2201 22.7614C18.2616 24 16.2109 24 12.1096 24Z" fill="#DCE2FF"/>
<path d="M8.4375 17.625H7.6875C7.53832 17.625 7.39524 17.5657 7.28975 17.4602C7.18426 17.3548 7.125 17.2117 7.125 17.0625V13.6875C7.125 13.5383 7.18426 13.3952 7.28975 13.2898C7.39524 13.1843 7.53832 13.125 7.6875 13.125H8.4375C8.58668 13.125 8.72976 13.1843 8.83525 13.2898C8.94074 13.3952 9 13.5383 9 13.6875V17.0625C9 17.2117 8.94074 17.3548 8.83525 17.4602C8.72976 17.5657 8.58668 17.625 8.4375 17.625ZM13.6875 17.625H12.9375C12.7883 17.625 12.6452 17.5657 12.5398 17.4602C12.4343 17.3548 12.375 17.2117 12.375 17.0625V11.4375C12.375 11.2883 12.4343 11.1452 12.5398 11.0398C12.6452 10.9343 12.7883 10.875 12.9375 10.875H13.6875C13.8367 10.875 13.9798 10.9343 14.0852 11.0398C14.1907 11.1452 14.25 11.2883 14.25 11.4375V17.0625C14.25 17.2117 14.1907 17.3548 14.0852 17.4602C13.9798 17.5657 13.8367 17.625 13.6875 17.625ZM16.3125 17.625H15.5625C15.4133 17.625 15.2702 17.5657 15.1648 17.4602C15.0593 17.3548 15 17.2117 15 17.0625V8.8125C15 8.66332 15.0593 8.52024 15.1648 8.41475C15.2702 8.30926 15.4133 8.25 15.5625 8.25H16.3125C16.4617 8.25 16.6048 8.30926 16.7102 8.41475C16.8157 8.52024 16.875 8.66332 16.875 8.8125V17.0625C16.875 17.2117 16.8157 17.3548 16.7102 17.4602C16.6048 17.5657 16.4617 17.625 16.3125 17.625ZM11.0625 17.625H10.3125C10.1633 17.625 10.0202 17.5657 9.91475 17.4602C9.80926 17.3548 9.75 17.2117 9.75 17.0625V6.9375C9.75 6.78832 9.80926 6.64524 9.91475 6.53975C10.0202 6.43426 10.1633 6.375 10.3125 6.375H11.0625C11.2117 6.375 11.3548 6.43426 11.4602 6.53975C11.5657 6.64524 11.625 6.78832 11.625 6.9375V17.0625C11.625 17.2117 11.5657 17.3548 11.4602 17.4602C11.3548 17.5657 11.2117 17.625 11.0625 17.625Z" fill="#5C76FF"/>
</svg>
