<svg width="128" height="136" viewBox="0 0 128 136" fill="none" xmlns="http://www.w3.org/2000/svg">
<path d="M64 124C97.1371 124 124 97.1371 124 64C124 30.8629 97.1371 4 64 4C30.8629 4 4 30.8629 4 64C4 97.1371 30.8629 124 64 124Z" fill="#603535"/>
<path d="M64 44H44V24C44 21.8 45.8 20 48 20C56.8 20 64 27.2 64 36V44Z" fill="#FF680A"/>
<path d="M98 136H34V128C34 108.2 50.2 92 70 92H98V136Z" fill="#FF7E29"/>
<path d="M88 132H40V128C40 114.7 50.7 104 64 104C77.3 104 88 114.7 88 128V132Z" fill="#FF680A"/>
<path d="M98 100H66C46.1 100 30 83.9 30 64C30 44.2 46.2 28 66 28H82C90.8 28 98 35.2 98 44V100Z" fill="#FF7E29"/>
<path d="M56 94C45 94 36 85 36 74V70C36 65.6 39.6 62 44 62H68C72.4 62 76 65.6 76 70V74C76 85 67 94 56 94Z" fill="#FFE4D1"/>
<path d="M68 60C70.2091 60 72 58.2091 72 56C72 53.7909 70.2091 52 68 52C65.7909 52 64 53.7909 64 56C64 58.2091 65.7909 60 68 60Z" fill="#603535"/>
<path d="M52 60C54.2091 60 56 58.2091 56 56C56 53.7909 54.2091 52 52 52C49.7909 52 48 53.7909 48 56C48 58.2091 49.7909 60 52 60Z" fill="#603535"/>
<path d="M48 62H56C57.1 62 58 62.9 58 64C58 67.3 55.3 70 52 70C48.7 70 46 67.3 46 64C46 62.9 46.9 62 48 62Z" fill="#603535"/>
<path d="M74 52C74 53.1 73.1 54 72 54H64C62.9 54 62 53.1 62 52C62 50.9 62.9 50 64 50H72C73.1 50 74 50.9 74 52Z" fill="#FF680A"/>
<path d="M84 70C84 71.1 83.1 72 82 72H70C68.9 72 68 71.1 68 70C68 68.9 68.9 68 70 68H82C83.1 68 84 68.9 84 70Z" fill="#FFE4D1"/>
<path d="M84 78C84 79.1 83.1 80 82 80H70C68.9 80 68 79.1 68 78C68 76.9 68.9 76 70 76H82C83.1 76 84 76.9 84 78Z" fill="#FFE4D1"/>
<path d="M44 70C44 71.1 43.1 72 42 72H30C28.9 72 28 71.1 28 70C28 68.9 28.9 68 30 68H42C43.1 68 44 68.9 44 70Z" fill="#FFE4D1"/>
<path d="M44 78C44 79.1 43.1 80 42 80H30C28.9 80 28 79.1 28 78C28 76.9 28.9 76 30 76H42C43.1 76 44 76.9 44 78Z" fill="#FFE4D1"/>
<path d="M58 52C58 53.1 57.1 54 56 54H48C46.9 54 46 53.1 46 52C46 50.9 46.9 50 48 50H56C57.1 50 58 50.9 58 52Z" fill="#FF680A"/>
<path d="M78 44H98V24C98 21.8 96.2 20 94 20C85.2 20 78 27.2 78 36V44Z" fill="#FF7E29"/>
<path d="M94.0001 36V24C90.0001 24 86.4 26 84.3 29C88.2 30.3 91.6001 32.8 94.0001 36Z" fill="#F3A9B1"/>
<path d="M68 70C69.1046 70 70 69.1046 70 68C70 66.8954 69.1046 66 68 66C66.8954 66 66 66.8954 66 68C66 69.1046 66.8954 70 68 70Z" fill="#FFBD8F"/>
<path d="M64 78C65.1046 78 66 77.1046 66 76C66 74.8954 65.1046 74 64 74C62.8954 74 62 74.8954 62 76C62 77.1046 62.8954 78 64 78Z" fill="#FFBD8F"/>
<path d="M40 78C41.1046 78 42 77.1046 42 76C42 74.8954 41.1046 74 40 74C38.8954 74 38 74.8954 38 76C38 77.1046 38.8954 78 40 78Z" fill="#FFBD8F"/>
<path d="M94 76H98V68H94C91.8 68 90 69.8 90 72C90 74.2 91.8 76 94 76Z" fill="#FF680A"/>
<path d="M94 88H98V80H94C91.8 80 90 81.8 90 84C90 86.2 91.8 88 94 88Z" fill="#FF680A"/>
<path d="M90 100H98V92H90C87.8 92 86 93.8 86 96C86 98.2 87.8 100 90 100Z" fill="#FF680A"/>
</svg>
