<svg width="128" height="136" viewBox="0 0 128 136" fill="none" xmlns="http://www.w3.org/2000/svg">
<path d="M64 124C97.1371 124 124 97.1371 124 64C124 30.8629 97.1371 4 64 4C30.8629 4 4 30.8629 4 64C4 97.1371 30.8629 124 64 124Z" fill="#4577FF"/>
<path d="M42 76C48.6 76 54 70.6 54 64V40C54 37.8 52.2 36 50 36H42C35.4 36 30 41.4 30 48V64C30 70.6 35.4 76 42 76Z" fill="#FFAA00"/>
<path d="M98 128H34V56C34 38.4 48.4 24 66 24C83.6 24 98 38.4 98 56V128Z" fill="#FFC036"/>
<path d="M86 136H38C38 122.7 48.7 112 62 112C75.3 112 86 122.7 86 136Z" fill="#FFE09E"/>
<path d="M70 60C72.2091 60 74 58.2091 74 56C74 53.7909 72.2091 52 70 52C67.7909 52 66 53.7909 66 56C66 58.2091 67.7909 60 70 60Z" fill="#603535"/>
<path d="M74 44C74 45.1 73.1 46 72 46H68C66.9 46 66 45.1 66 44C66 42.9 66.9 42 68 42H72C73.1 42 74 42.9 74 44Z" fill="#FFE09E"/>
<path d="M58 44C58 45.1 57.1 46 56 46H52C50.9 46 50 45.1 50 44C50 42.9 50.9 42 52 42H56C57.1 42 58 42.9 58 44Z" fill="#FFE09E"/>
<path d="M54 60C56.2091 60 58 58.2091 58 56C58 53.7909 56.2091 52 54 52C51.7909 52 50 53.7909 50 56C50 58.2091 51.7909 60 54 60Z" fill="#603535"/>
<path d="M60 92H72C73.1 92 74 92.9 74 94V100C74 104.4 70.4 108 66 108C61.6 108 58 104.4 58 100V94C58 92.9 58.9 92 60 92Z" fill="#F5463A"/>
<path d="M66 102C64.9 102 64 101.1 64 100V92C64 90.9 64.9 90 66 90C67.1 90 68 90.9 68 92V100C68 101.1 67.1 102 66 102Z" fill="#ED2F21"/>
<path d="M58 100H46C32.8 100 22 89.2 22 76V68C22 63.6 25.6 60 30 60H74C78.4 60 82 63.6 82 68V76C82 89.2 71.2 100 58 100Z" fill="#FFE09E"/>
<path d="M28 60H40C41.1 60 42 60.9 42 62V64C42 68.4 38.4 72 34 72C29.6 72 26 68.4 26 64V62C26 60.9 26.9 60 28 60Z" fill="#603535"/>
<path d="M50 70C51.1046 70 52 69.1046 52 68C52 66.8954 51.1046 66 50 66C48.8954 66 48 66.8954 48 68C48 69.1046 48.8954 70 50 70Z" fill="#FFC036"/>
<path d="M38 68C39.1046 68 40 67.1046 40 66C40 64.8954 39.1046 64 38 64C36.8954 64 36 64.8954 36 66C36 67.1046 36.8954 68 38 68Z" fill="#301B1B"/>
<path d="M30 68C31.1046 68 32 67.1046 32 66C32 64.8954 31.1046 64 30 64C28.8954 64 28 64.8954 28 66C28 67.1046 28.8954 68 30 68Z" fill="#301B1B"/>
<path d="M58 70C59.1046 70 60 69.1046 60 68C60 66.8954 59.1046 66 58 66C56.8954 66 56 66.8954 56 68C56 69.1046 56.8954 70 58 70Z" fill="#FFC036"/>
<path d="M54 78C55.1046 78 56 77.1046 56 76C56 74.8954 55.1046 74 54 74C52.8954 74 52 74.8954 52 76C52 77.1046 52.8954 78 54 78Z" fill="#FFC036"/>
<path d="M98 76C91.4 76 86 70.6 86 64V40C86 37.8 87.8 36 90 36H98C104.6 36 110 41.4 110 48V64C110 70.6 104.6 76 98 76Z" fill="#FFAA00"/>
</svg>
