<svg width="128" height="140" viewBox="0 0 128 140" fill="none" xmlns="http://www.w3.org/2000/svg">
<path d="M64 124C97.1371 124 124 97.1371 124 64C124 30.8629 97.1371 4 64 4C30.8629 4 4 30.8629 4 64C4 97.1371 30.8629 124 64 124Z" fill="#F5463A"/>
<path d="M96 140H32V124C32 106.3 46.3 92 64 92C81.7 92 96 106.3 96 124V140Z" fill="#2BD665"/>
<path d="M64 108C70.6 108 76 102.6 76 96V94.3C72.3 92.8 68.2 92 64 92C59.8 92 55.7 92.8 52 94.3V96C52 102.6 57.4 108 64 108Z" fill="#1FC258"/>
<path d="M64 104C59.6 104 56 100.4 56 96V88C56 83.6 59.6 80 64 80C68.4 80 72 83.6 72 88V96C72 100.4 68.4 104 64 104Z" fill="#FFA47A"/>
<path d="M64 94C47.4 94 34 80.6 34 64V56C34 39.4 47.4 26 64 26C80.6 26 94 39.4 94 56V64C94 80.6 80.6 94 64 94Z" fill="#FFBB9B"/>
<path d="M68 60C70.2091 60 72 58.2091 72 56C72 53.7909 70.2091 52 68 52C65.7909 52 64 53.7909 64 56C64 58.2091 65.7909 60 68 60Z" fill="#603535"/>
<path d="M52 60C54.2091 60 56 58.2091 56 56C56 53.7909 54.2091 52 52 52C49.7909 52 48 53.7909 48 56C48 58.2091 49.7909 60 52 60Z" fill="#603535"/>
<path d="M60 80C52.3 80 46 73.7 46 66V64H74V66C74 73.7 67.7 80 60 80Z" fill="white"/>
<path d="M94 66H92V54H94C97.3 54 100 56.7 100 60C100 63.3 97.3 66 94 66Z" fill="#FFBB9B"/>
<path d="M92 54H96V38C96 33.6 92.4 30 88 30V50C88 52.2 89.8 54 92 54Z" fill="#643536"/>
<path d="M92 44H44C35.2 44 28 36.8 28 28H84C88.4 28 92 31.6 92 36V44Z" fill="#643536"/>
<path d="M92 32H48C39.2 32 32 24.8 32 16H76C84.8 16 92 23.2 92 32Z" fill="#643536"/>
</svg>
