<svg width="128" height="144" viewBox="0 0 128 144" fill="none" xmlns="http://www.w3.org/2000/svg">
<path d="M64 124C97.1371 124 124 97.1371 124 64C124 30.8629 97.1371 4 64 4C30.8629 4 4 30.8629 4 64C4 97.1371 30.8629 124 64 124Z" fill="#FFCE47"/>
<path d="M96 104H36C31.6 104 28 100.4 28 96V40C28 31.2 35.2 24 44 24H68C87.9 24 104 40.1 104 60V96C104 100.4 100.4 104 96 104Z" fill="#643536"/>
<path d="M92 144H36V124C36 108.5 48.5 96 64 96C79.5 96 92 108.5 92 124V144Z" fill="#CC2996"/>
<path d="M64 112C70.6 112 76 106.6 76 100V98.7C72.4 97 68.3 96 64 96C59.7 96 55.6 97 52 98.7V100C52 106.6 57.4 112 64 112Z" fill="#FFA47A"/>
<path d="M64 108C59.6 108 56 104.4 56 100V92C56 87.6 59.6 84 64 84C68.4 84 72 87.6 72 92V100C72 104.4 68.4 108 64 108Z" fill="#FFA47A"/>
<path d="M64 94C47.4 94 34 80.6 34 64V56C34 39.4 47.4 26 64 26C80.6 26 94 39.4 94 56V64C94 80.6 80.6 94 64 94Z" fill="#FFBB9B"/>
<path d="M72 14H70H66H52C45.7 14 40.5 18.9 40 25.1C40 25.4 40 25.7 40 26C40 39.2 50.8 50 64 50H98H104V46C104 28.4 89.6 14 72 14Z" fill="#643536"/>
<path d="M68 60C70.2091 60 72 58.2091 72 56C72 53.7909 70.2091 52 68 52C65.7909 52 64 53.7909 64 56C64 58.2091 65.7909 60 68 60Z" fill="#603535"/>
<path d="M52 60C54.2091 60 56 58.2091 56 56C56 53.7909 54.2091 52 52 52C49.7909 52 48 53.7909 48 56C48 58.2091 49.7909 60 52 60Z" fill="#603535"/>
<path d="M60 80C52.3 80 46 73.7 46 66V64H74V66C74 73.7 67.7 80 60 80Z" fill="white"/>
<path d="M94 66H92V54H94C97.3 54 100 56.7 100 60C100 63.3 97.3 66 94 66Z" fill="#FFD8A8"/>
<path d="M96 104C100.4 104 104 100.4 104 96V48H80V88C80 96.8 87.2 104 96 104Z" fill="#643536"/>
</svg>
